<svg xmlns="http://www.w3.org/2000/svg" viewBox="0 0 1763 357" preserveAspectRatio="xMinYMin meet">
  <g fill="none" fill-rule="evenodd">
    <g fill="#8E979C" fill-rule="nonzero" transform="translate(462.152 113.836)">
      <path d="M95.6264559 115.199403C92.3215319 124.779701 88.6888024 131.055522 84.8357447 135.241194 80.096 140.30806 73.1583465 141.30209 61.7012766 141.30209 52.4528632 141.30209 45.0691793 140.968955 40.9957933 138.658507 37.1427356 136.235224 35.9282432 132.377313 35.9282432 121.034627L35.9282432 39.5402985C35.9282432 21.921791 38.1315258 20.9277612 55.0968024 19.718806L55.0968024 13.3301493 1.12175076 13.3301493 1.12175076 19.718806C18.7480122 21.1480597 20.177459 22.1420896 20.177459 39.5402985L20.177459 122.469254C20.177459 140.087761 18.3073556 141.30209.901422492 142.398209L.901422492 148.899701 94.8579939 148.899701C96.6206201 142.511045 101.134663 122.469254 102.343781 116.18806L95.6264559 115.199403zM134.065678 36.2358209C139.794213 36.2358209 144.087927 31.281791 144.087927 25.9946269 144.087927 19.8262687 139.794213 15.4202985 134.286006 15.4202985 128.562845 15.4202985 123.8231 19.8262687 123.8231 25.9946269 123.8231 31.281791 128.562845 36.2358209 134.065678 36.2358209zM157.855757 148.899701L157.855757 142.951642C144.087927 141.957612 142.65848 140.528358 142.65848 126.654925L142.65848 54.1874627C134.065678 58.2602985 124.924742 60.7964179 114.241508 62.7791045L114.241508 68.1737313C127.568681 69.9361194 128.009337 70.8173134 128.009337 83.481791L128.009337 126.654925C128.009337 140.528358 126.359562 141.957612 112.812061 142.951642L112.812061 148.899701 157.855757 148.899701zM173.386213 57.2716418L167.88338 63.6602985 168.87217 65.8632836 183.634164 65.8632836 183.634164 127.202985C183.634164 140.528358 181.979015 141.957612 168.431514 142.951642L168.431514 148.899701 216.565179 148.899701 216.565179 143.392239C199.712754 141.522388 198.503635 140.968955 198.503635 125.773731L198.503635 65.8632836 221.192073 65.8632836C223.502833 64.2083582 224.496997 59.1414925 223.282505 57.2716418L198.503635 57.2716418 198.503635 50.1146269C198.503635 32.3832836 201.362529 22.1420896 204.006468 18.2841791 207.091064 14.318806 210.395988 12.121194 216.344851 12.121194 223.062176 12.121194 229.231368 15.7534328 232.643769 19.278209 234.959903 21.2608955 236.609678 21.2608955 238.372304 19.718806 240.468109 18.2841791 241.236571 16.8549254 242.117884 15.2 242.89172 12.8895522 242.671392 10.0256716 241.129094 8.04298507 237.82417 3.74985075 231.43465 1.10626866 224.276669.445373134 216.785508 1.65432836 208.746213 5.39940299 201.362529 11.680597 190.571818 21.481194 187.266894 31.5020896 185.617119 36.2358209 184.402626 40.7546269 183.634164 47.2507463 183.634164 53.8597015L183.634164 57.2716418 173.386213 57.2716418zM300.714456 126.982687C292.895489 133.919403 285.296851 137.664478 276.591198 137.664478 262.275234 137.664478 245.422809 125.773731 245.309957 97.360597 270.868036 96.5868657 297.62986 94.4967164 300.934784 94.0561194 304.567514 93.0620896 305.34135 91.6328358 305.34135 86.8937313 305.34135 70.1564179 291.460669 54.8483582 274.060109 54.8483582L273.839781 54.8483582C263.484353 54.8483582 252.252985 60.5761194 243.880511 69.9361194 235.287708 79.4089552 230.333009 92.5140299 230.333009 106.82806 230.333009 130.507463 245.422809 151.322985 270.42738 151.322985 276.924377 151.322985 290.912535 147.905672 304.347185 132.157015L300.714456 126.982687zM269.433216 62.999403C280.997763 62.999403 288.596401 72.4668657 288.596401 83.481791 288.596401 86.5659701 287.387283 87.7749254 283.313897 87.9952239 270.42738 88.3283582 258.309325 88.5486567 246.083793 88.3283582 249.936851 71.8059701 259.410967 62.999403 269.212888 62.999403L269.433216 62.999403zM378.807392 80.838209C377.926079 75.1104478 375.943125 63.2197015 373.847319 58.480597 369.553605 56.718209 364.045398 54.8483582 355.45797 54.8483582 336.509739 54.8483582 324.176729 67.0722388 324.176729 81.3916418 324.176729 97.360597 336.842918 103.743881 350.718225 110.025075 360.412669 114.758806 367.350322 119.605373 367.350322 128.852537 367.350322 138.105075 359.531356 144.160597 351.819866 144.160597 339.153678 144.160597 330.340547 132.710448 326.820669 118.611343L320.318298 119.605373C320.318298 126.982687 322.301252 141.081791 323.956401 144.160597 327.261325 147.244776 337.063246 151.322985 347.966809 151.322985 364.486055 151.322985 382.219793 141.522388 382.219793 122.689552 382.219793 108.370149 371.208754 100.88 355.678298 94.4967164 346.644839 91.079403 337.944559 86.3456716 337.944559 76.5450746 337.944559 67.9534328 343.452766 61.5647761 351.819866 61.5647761 361.842116 61.5647761 368.785143 69.6083582 372.638201 82.4931343L378.807392 80.838209zM449.957301 141.30209L447.866869 135.794627C445.22293 137.223881 439.935052 139.539701 434.426845 139.539701 429.031489 139.539701 422.093836 136.235224 422.093836 119.492537L422.093836 65.8632836 445.22293 65.8632836C447.866869 63.9880597 448.527854 59.361791 446.432049 57.2716418L422.093836 57.2716418 422.093836 29.2991045 419.00924 28.8585075 407.55217 42.5116418 407.55217 57.2716418 397.529921 57.2716418 391.801386 63.44 392.682699 65.8632836 407.55217 65.8632836 407.55217 126.762388C407.55217 142.951642 414.602675 151.322985 427.268863 151.322985 429.472146 151.322985 432.997398 150.549254 436.850456 148.459104L449.957301 141.30209zM552.614152 57.2716418L514.17493 57.2716418 514.17493 63.2197015C526.287611 64.4286567 527.722432 66.8519403 525.18597 74.8901493 520.338748 89.2095522 511.310663 112.668657 505.141471 128.084179L485.537629 74.6698507C482.89369 67.0722388 483.88248 64.4286567 493.576924 63.2197015L493.576924 57.2716418 452.60124 57.2716418 452.60124 63.2197015C464.278638 64.4286567 466.589398 67.7331343 470.995964 78.9683582 477.82614 95.1576119 486.418942 119.605373 494.565714 141.957612 495.559878 145.374925 495.559878 148.459104 494.786043 151.543284 493.576924 154.186866 492.142103 158.700299 488.068717 166.518209 483.334347 175.437612 479.255587 181.05791 472.871441 184.910448 469.453666 187.113433 467.583562 189.423881 467.583562 192.400597 467.583562 197.134328 473.306723 202.308657 479.588766 202.308657 482.453033 202.308657 485.20445 201.207164 486.418942 197.354627 489.057508 186.339701 493.576924 174.889552 507.672559 141.081791 522.214225 106.387463 528.490894 89.2095522 533.665921 78.3074627 539.394456 66.5241791 541.37741 64.8692537 552.614152 63.2197015L552.614152 57.2716418zM600.19431 148.899701L600.19431 142.951642C586.319003 141.957612 584.443526 140.528358 584.443526 126.762388L584.443526.445373134C578.166857 2.86865672 565.828474 6.61373134 554.817435 8.04298507L554.817435 13.5504478C568.585264 14.318806 570.014711 14.9797015 570.014711 29.519403L570.014711 126.762388C570.014711 140.528358 567.92428 141.957612 554.376778 142.951642L554.376778 148.899701 600.19431 148.899701zM682.693812 126.982687C674.869471 133.919403 667.270833 137.664478 658.570553 137.664478 644.25459 137.664478 627.402164 125.773731 627.289313 97.360597 652.842018 96.5868657 679.609216 94.4967164 682.91414 94.0561194 686.546869 93.0620896 687.320705 91.6328358 687.320705 86.8937313 687.320705 70.1564179 673.440024 54.8483582 656.039465 54.8483582L655.819137 54.8483582C645.463708 54.8483582 634.226967 60.5761194 625.859866 69.9361194 617.267064 79.4089552 612.312365 92.5140299 612.312365 106.82806 612.312365 130.507463 627.402164 151.322985 652.401362 151.322985 658.903733 151.322985 672.891891 147.905672 686.326541 132.157015L682.693812 126.982687zM651.412571 62.999403C662.977119 62.999403 670.575757 72.4668657 670.575757 83.481791 670.575757 86.5659701 669.366638 87.7749254 665.287878 87.9952239 652.401362 88.3283582 640.288681 88.5486567 628.063149 88.3283582 631.916207 71.8059701 641.390322 62.999403 651.192243 62.999403L651.412571 62.999403zM748.228036 13.3301493L748.228036 19.8262687C764.526954 21.2608955 766.182103 21.921791 766.182103 39.5402985L766.182103 122.689552C766.182103 140.30806 764.526954 141.30209 746.132231 142.511045L746.132231 148.899701 795.260061 148.899701C820.812766 148.899701 840.857264 143.832836 856.608049 131.716418 872.579161 119.605373 882.160754 100.659701 882.160754 75.8841791 882.160754 56.2776119 874.782444 40.9749254 864.539866 30.9486567 851.65335 18.3970149 832.48479 13.3301493 805.610116 13.3301493L748.228036 13.3301493zM782.373544 35.2471642C782.373544 27.2035821 783.142006 25.2262687 785.237812 23.5713433 787.220766 21.921791 792.723599 20.9277612 802.638371 20.9277612 816.298723 20.9277612 828.524255 23.1307463 837.992997 28.638209 855.506407 38.6591045 863.76603 57.7122388 863.76603 78.5277612 863.76603 111.23403 845.924815 140.748657 805.28231 140.748657 789.311198 140.748657 782.373544 136.675821 782.373544 120.927164L782.373544 35.2471642zM972.038565 126.982687C964.219599 133.919403 956.62096 137.664478 947.915307 137.664478 933.599343 137.664478 916.746918 125.773731 916.639441 97.360597 942.192146 96.5868657 968.95397 94.4967164 972.258894 94.0561194 975.891623 93.0620896 976.665459 91.6328358 976.665459 86.8937313 976.665459 70.1564179 962.784778 54.8483582 945.384219 54.8483582L945.163891 54.8483582C934.808462 54.8483582 923.577094 60.5761194 915.20462 69.9361194 906.611818 79.4089552 901.657119 92.5140299 901.657119 106.82806 901.657119 130.507463 916.746918 151.322985 941.751489 151.322985 948.248486 151.322985 962.236644 147.905672 975.671295 132.157015L972.038565 126.982687zM940.757325 62.999403C952.321872 62.999403 959.925884 72.4668657 959.925884 83.481791 959.925884 86.5659701 958.711392 87.7749254 954.638006 87.9952239 941.751489 88.3283582 929.633435 88.5486567 917.407903 88.3283582 921.26096 71.8059701 930.735076 62.999403 940.536997 62.999403L940.757325 62.999403zM1092.20345 148.899701L1092.20345 142.951642C1079.53726 141.522388 1078.32815 140.968955 1078.32815 126.654925L1078.32815 86.3456716C1078.32815 66.3038806 1067.86524 54.8483582 1051.56095 54.8483582 1045.1768 54.8483582 1039.22794 57.7122388 1033.4994 61.1241791 1028.21153 64.8692537 1023.69748 67.7331343 1019.61872 70.8173134L1019.61872 54.1874627C1011.47195 58.480597 1002.11069 61.0167164 992.083064 62.7791045L992.083064 68.1737313C1003.54013 69.9361194 1004.96958 70.8173134 1004.96958 84.2555224L1004.96958 126.762388C1004.96958 140.30806 1003.65298 141.522388 989.551976 142.951642L989.551976 148.899701 1033.94006 148.899701 1033.94006 142.951642C1020.61289 141.522388 1019.61872 141.081791 1019.61872 126.654925L1019.61872 78.5277612C1026.22857 72.4668657 1034.92885 66.8519403 1043.96231 66.8519403 1058.94463 66.8519403 1063.78648 76.7653731 1063.78648 91.4125373L1063.78648 125.773731C1063.78648 139.867463 1062.13671 141.522388 1049.25019 142.951642L1049.25019 148.899701 1092.20345 148.899701zM1154.87878 141.30209L1152.78298 135.794627C1150.13904 137.223881 1144.85653 139.539701 1139.34833 139.539701 1133.9476 139.539701 1127.00995 136.235224 1127.00995 119.492537L1127.00995 65.8632836 1150.13904 65.8632836C1152.78298 63.9880597 1153.44396 59.361791 1151.35353 57.2716418L1127.00995 57.2716418 1127.00995 29.2991045 1123.92535 28.8585075 1112.47365 42.5116418 1112.47365 57.2716418 1102.4514 57.2716418 1096.72287 63.44 1097.60418 65.8632836 1112.47365 65.8632836 1112.47365 126.762388C1112.47365 142.951642 1119.51878 151.322985 1132.19035 151.322985 1134.38826 151.322985 1137.91351 150.549254 1141.77194 148.459104L1154.87878 141.30209zM1248.4968 141.081791L1246.18604 135.241194C1244.20309 136.235224 1241.11849 137.664478 1238.69488 137.664478 1234.72897 137.664478 1231.31657 134.36 1231.31657 125L1231.31657 85.4644776C1231.31657 74.8901493 1229.00581 66.5241791 1222.06278 60.5761194 1217.76907 56.718209 1211.27207 54.8483582 1205.32321 54.8483582 1193.09768 57.2716418 1179.7705 65.4226866 1174.59548 69.3880597 1170.73705 72.2465672 1167.65245 74.6698507 1167.65245 77.7540299 1167.65245 82.600597 1173.05318 86.5659701 1176.24525 86.5659701 1179.32985 86.5659701 1181.64061 85.1313433 1182.19412 82.0525373 1184.28455 75.6638806 1185.9397 71.5856716 1188.58364 68.5068657 1190.56659 66.0835821 1194.08647 64.2083582 1198.60588 64.2083582 1209.17627 64.2083582 1217.00061 72.8 1217.00061 88.2155224L1217.00061 91.1922388C1212.48119 94.4967164 1197.17106 100.439403 1184.50488 104.73791 1172.61252 108.370149 1167.10432 115.747463 1167.10432 125.553433 1167.10432 139.319403 1177.45437 151.322985 1191.66286 151.322985 1198.93369 151.322985 1208.62813 143.832836 1217.32841 138.105075 1218.20973 141.522388 1219.41884 144.601194 1222.50344 147.685373 1224.37892 149.560597 1228.78548 151.322985 1231.5369 151.322985L1248.4968 141.081791zM1217.00061 130.727761C1212.92185 134.36 1204.33442 139.099104 1198.60588 139.099104 1191.66286 139.099104 1183.07543 133.81194 1183.07543 123.350448 1183.07543 115.527164 1187.70232 111.454328 1196.28975 107.82209 1201.0295 105.726567 1212.26086 100.88 1217.00061 98.5695522L1217.00061 130.727761zM1299.71506 148.899701L1299.71506 142.951642C1285.83976 141.957612 1283.96428 140.528358 1283.96428 126.762388L1283.96428.445373134C1277.68761 2.86865672 1265.34923 6.61373134 1254.33819 8.04298507L1254.33819 13.5504478C1268.10602 14.318806 1269.53547 14.9797015 1269.53547 29.519403L1269.53547 126.762388C1269.53547 140.528358 1267.44503 141.957612 1253.89753 142.951642L1253.89753 148.899701 1299.71506 148.899701z"></path>
    </g>
    <polygon fill="#C80251" points="153.884 1.924 153.911 2.262 153.944 2.724 154.019 3.514 154.105 4.315 154.202 5.115 154.314 5.921 154.438 6.738 154.572 7.555 154.723 8.377 154.879 9.21 155.051 10.042 155.233 10.881 155.427 11.724 155.631 12.573 155.846 13.427 156.072 14.293 156.308 15.158 156.346 15.276 156.539 16.028 156.776 16.909 157.028 17.796 157.286 18.688 157.555 19.585 157.834 20.482 158.119 21.39 158.42 22.304 158.726 23.223 159.043 24.147 159.371 25.076 159.71 26.011 160.054 26.952 160.408 27.897 160.774 28.848 161.145 29.805 161.526 30.767 161.918 31.734 162.316 32.701 162.719 33.679 163.138 34.662 163.557 35.645 163.987 36.639 164.428 37.633 164.487 37.762 164.853 38.644 165.282 39.659 165.723 40.675 166.169 41.701 166.621 42.733 167.077 43.764 167.545 44.801 168.018 45.844 168.496 46.897 168.98 47.944 169.974 50.067 170.667 51.523 170.979 52.211 171.973 54.381 172.994 56.574 174.036 58.782 175.1 61.007 176.181 63.247 177.282 65.509 177.841 66.643 178.373 67.793 179.459 70.103 180.555 72.43 181.673 74.773 182.796 77.126 183.935 79.501 185.085 81.881 185.596 82.94 187.348 86.722 189.556 91.483 189.615 91.623 191.845 96.593 193.49 100.263 194.076 101.617 196.257 106.7 197.348 109.263 197.606 109.864 198.418 111.831 199.482 114.416 200.54 117.005 201.599 119.606 202.072 120.783 202.631 122.212 203.652 124.834 204.662 127.456 205.662 130.089 206.656 132.722 207.639 135.36 208.606 137.998 209.563 140.642 210.509 143.291 211.433 145.918 211.439 145.94 212.331 148.589 212.771 149.921 213.207 151.248 213.636 152.581 214.061 153.908 214.485 155.235 214.905 156.562 215.313 157.895 215.721 159.222 216.125 160.549 216.522 161.876 216.909 163.198 217.296 164.525 217.678 165.853 218.048 167.174 218.419 168.501 218.779 169.823 219.134 171.145 219.483 172.467 219.827 173.789 219.983 174.385 220.16 175.11 220.483 176.427 220.8 177.749 221.106 179.065 221.407 180.381 221.703 181.698 221.993 183.009 222.272 184.32 222.541 185.631 222.804 186.942 223.062 188.248 223.309 189.553 223.551 190.859 223.782 192.159 224.003 193.46 224.218 194.755 224.422 196.05 224.621 197.344 224.809 198.639 224.986 199.924 225.153 201.213 225.314 202.497 225.464 203.781 225.577 204.829 225.604 205.06 225.728 206.339 225.846 207.613 225.948 208.886 226.045 210.154 226.131 211.422 226.201 212.685 226.265 213.942 226.319 215.199 226.356 216.457 226.389 217.709 226.41 218.955 226.415 220.196 226.41 221.438 226.394 222.679 226.367 223.909 226.329 225.14 226.276 226.365 226.217 227.59 226.136 228.804 226.05 230.019 225.948 231.233 225.835 232.436 225.706 233.64 225.566 234.838 225.416 236.031 225.249 237.219 225.067 238.401 224.873 239.583 224.664 240.754 224.443 241.925 224.207 243.086 223.96 244.247 223.696 245.402 223.417 246.552 223.121 247.691 222.815 248.83 222.493 249.964 222.154 251.087 221.799 252.21 221.434 253.322 221.047 254.434 220.649 255.536 220.236 256.632 219.806 257.712 219.585 258.26 219.36 258.802 219.129 259.34 218.897 259.877 218.661 260.414 218.419 260.946 218.172 261.478 217.925 262.01 217.828 262.209 217.661 262.531 217.382 263.053 217.108 263.568 216.823 264.084 216.538 264.6 216.248 265.11 215.953 265.616 215.652 266.126 215.351 266.626 215.044 267.131 214.733 267.63 214.416 268.13 214.099 268.624 213.776 269.119 213.448 269.608 213.115 270.097 212.782 270.586 212.443 271.069 212.1 271.553 211.75 272.031 211.396 272.509 211.041 272.987 210.681 273.46 210.315 273.928 209.95 274.395 209.579 274.863 209.198 275.33 208.821 275.787 208.435 276.249 208.042 276.706 207.65 277.157 207.252 277.614 206.849 278.06 206.446 278.506 206.032 278.952 205.619 279.398 205.199 279.833 204.78 280.273 204.35 280.709 203.92 281.139 203.485 281.568 203.045 281.998 202.599 282.423 202.147 282.842 201.696 283.266 201.239 283.68 200.777 284.099 200.309 284.507 199.842 284.921 199.363 285.324 198.885 285.733 198.402 286.136 197.913 286.533 197.423 286.931 196.924 287.323 196.424 287.715 195.919 288.107 195.408 288.494 194.892 288.876 194.371 289.263 193.85 289.639 193.323 290.015 192.791 290.391 192.254 290.762 191.711 291.133 191.168 291.493 189.148 291.283 189.427 289.268 189.9 288.838 190.368 288.408 190.824 287.973 191.281 287.538 191.733 287.103 192.173 286.667 192.614 286.232 193.044 285.792 193.474 285.356 193.898 284.916 194.317 284.47 194.726 284.029 195.134 283.583 195.537 283.137 195.935 282.691 196.327 282.245 196.714 281.794 197.096 281.348 197.477 280.897 197.848 280.445 198.213 279.989 198.579 279.537 198.934 279.081 199.288 278.624 199.638 278.167 199.976 277.71 200.315 277.254 200.648 276.792 200.981 276.33 201.303 275.867 201.62 275.405 201.938 274.943 202.249 274.476 202.55 274.008 202.851 273.541 203.147 273.073 203.442 272.606 203.727 272.139 204.012 271.666 204.286 271.193 204.56 270.72 204.829 270.247 205.092 269.774 205.355 269.296 205.608 268.823 205.86 268.345 206.108 267.867 206.349 267.389 206.591 266.91 206.822 266.427 207.053 265.949 207.279 265.465 207.499 264.981 207.72 264.498 207.929 264.009 208.139 263.525 208.343 263.036 208.547 262.553 208.741 262.064 208.934 261.575 209.122 261.081 209.31 260.592 209.488 260.097 209.665 259.608 209.837 259.114 209.945 258.808 210.014 258.62 210.197 258.136 210.374 257.642 210.552 257.153 210.724 256.664 210.89 256.17 211.057 255.675 211.218 255.181 211.369 254.692 211.675 253.687 211.965 252.688 212.239 251.683 212.497 250.678 212.744 249.663 212.975 248.647 213.196 247.621 213.4 246.595 213.593 245.563 213.771 244.531 213.932 243.489 214.088 242.447 214.222 241.399 214.351 240.346 214.464 239.287 214.561 238.223 214.652 237.159 214.727 236.09 214.786 235.016 214.84 233.936 214.878 232.85 214.905 231.765 214.921 230.674 214.921 229.578 214.915 228.476 214.894 227.375 214.862 226.268 214.819 225.156 214.765 224.044 214.695 222.926 214.62 221.803 214.534 220.675 214.432 219.546 214.324 218.413 214.206 217.273 214.072 216.134 213.932 214.99 213.782 213.84 213.62 212.69 213.448 211.535 213.266 210.374 213.078 209.214 212.879 208.053 212.664 206.882 212.626 206.672 212.449 205.71 212.228 204.539 211.992 203.362 211.75 202.18 211.498 200.998 211.24 199.811 210.971 198.618 210.692 197.43 210.407 196.232 210.111 195.034 209.805 193.836 209.493 192.632 209.176 191.429 208.848 190.22 208.51 189.011 208.171 187.802 207.817 186.587 207.456 185.368 207.091 184.153 206.72 182.928 206.339 181.709 205.952 180.484 205.554 179.259 205.334 178.587 205.156 178.028 204.753 176.798 204.35 175.562 203.931 174.326 203.512 173.09 203.088 171.854 202.652 170.613 202.212 169.372 201.766 168.131 201.314 166.884 200.857 165.638 200.395 164.391 199.928 163.144 199.455 161.898 198.977 160.646 198.498 159.394 198.009 158.147 197.515 156.89 197.015 155.638 196.515 154.392 195.5 151.877 195.489 151.856 194.484 149.357 193.458 146.832 192.415 144.312 191.356 141.786 190.287 139.261 189.207 136.736 188.116 134.21 187.014 131.69 185.902 129.165 185.289 127.784 184.795 126.639 183.699 124.114 182.592 121.583 181.479 119.063 180.625 117.134 180.372 116.543 179.276 114.018 177.083 108.973 176.498 107.624 174.945 103.938 172.827 98.914 172.768 98.78 170.791 93.896 169.221 90.011 168.797 88.904 167.846 86.405 166.905 83.918 165.97 81.441 165.051 78.974 164.138 76.519 163.24 74.074 162.794 72.86 162.381 71.635 161.558 69.201 160.752 66.777 159.962 64.37 159.188 61.979 158.436 59.604 157.7 57.245 157.474 56.493 157.012 54.892 156.362 52.555 156.045 51.389 155.733 50.228 155.427 49.078 155.126 47.928 154.83 46.784 154.54 45.645 154.255 44.516 153.981 43.388 153.713 42.265 153.481 41.287 153.455 41.147 153.218 40.024 152.992 38.912 152.777 37.805 152.563 36.704 152.358 35.608 152.159 34.517 151.971 33.437 151.789 32.357 151.617 31.288 151.45 30.224 151.289 29.165 151.138 28.118 150.999 27.07 150.864 26.033 150.741 25.001 150.623 23.98 150.515 22.965 150.413 21.955 150.327 20.95 150.241 19.956 150.171 18.967 150.112 17.989 150.058 17.017 150.021 16.184 150.015 16.05 150.005 15.088 149.999 14.137 150.01 13.196 150.026 12.261 150.053 11.337 150.091 10.419 150.139 9.51 150.198 8.613 150.268 7.721 150.348 6.84 150.44 5.97 150.537 5.11 150.655 4.256 150.778 3.417 150.913 2.584 150.999 2.112 151.063 1.773 152.546 .441 153.884 1.924"></polygon>
    <polygon fill="#DE66C8" points="336.789 155.396 337.16 155.617 337.52 155.853 337.869 156.111 338.197 156.39 338.493 156.675 338.659 156.847 338.815 157.024 339.073 157.341 339.326 157.691 339.551 158.056 339.756 158.432 339.938 158.814 340.094 159.211 340.234 159.609 340.347 160.017 340.438 160.426 340.508 160.839 340.562 161.259 340.594 161.678 340.61 162.097 340.61 162.521 340.594 162.946 340.562 163.37 340.519 163.8 340.46 164.23 340.39 164.665 340.304 165.106 340.207 165.546 340.099 165.992 339.981 166.438 339.847 166.89 339.707 167.346 339.551 167.808 339.385 168.27 339.213 168.743 339.025 169.216 338.831 169.694 338.622 170.178 338.407 170.672 338.176 171.161 337.939 171.661 337.692 172.166 337.439 172.676 337.171 173.192 336.897 173.713 336.612 174.24 336.316 174.767 336.01 175.304 335.698 175.847 335.376 176.389 335.043 176.943 334.699 177.496 334.349 178.06 333.989 178.624 333.624 179.199 333.248 179.774 332.861 180.355 332.469 180.94 332.066 181.531 331.652 182.133 330.808 183.337 329.927 184.562 329.013 185.803 328.073 187.066 327.095 188.339 326.09 189.634 325.058 190.945 323.994 192.272 322.898 193.61 321.78 194.964 320.63 196.334 319.458 197.715 318.26 199.107 317.035 200.515 315.783 201.933 315.138 202.659 314.509 203.357 313.203 204.792 311.881 206.232 310.532 207.682 309.168 209.144 307.776 210.611 306.368 212.083 304.944 213.566 303.498 215.054 302.031 216.543 300.553 218.042 299.054 219.541 297.539 221.045 296.012 222.55 294.465 224.054 293.814 224.688 292.906 225.559 291.326 227.063 289.736 228.562 288.129 230.061 286.517 231.561 284.888 233.06 283.255 234.553 281.61 236.047 279.961 237.536 278.3 239.019 276.629 240.496 274.958 241.968 273.276 243.435 272.835 243.817 271.583 244.886 269.885 246.326 268.176 247.755 266.472 249.179 264.758 250.592 263.049 251.995 262.302 252.602 261.335 253.381 259.615 254.751 257.896 256.11 256.176 257.459 254.462 258.792 252.747 260.113 251.038 261.419 250.13 262.107 249.33 262.709 247.621 263.977 245.917 265.229 244.224 266.464 242.537 267.684 240.855 268.882 239.178 270.064 237.518 271.225 235.863 272.37 234.213 273.493 232.579 274.589 230.956 275.669 229.344 276.727 227.748 277.759 226.163 278.769 224.588 279.752 223.997 280.118 223.03 280.709 221.488 281.644 219.956 282.546 218.446 283.422 216.952 284.271 215.474 285.093 214.018 285.888 213.292 286.275 212.572 286.651 211.863 287.022 211.154 287.387 210.45 287.742 209.751 288.091 209.063 288.435 208.375 288.768 207.693 289.091 207.016 289.408 206.344 289.719 205.678 290.02 205.017 290.316 204.361 290.601 203.716 290.875 203.071 291.143 202.432 291.401 201.803 291.654 201.174 291.896 200.556 292.132 199.944 292.358 199.331 292.573 198.729 292.777 198.133 292.976 197.542 293.164 196.961 293.346 196.381 293.513 195.811 293.674 195.242 293.824 194.683 293.97 194.129 294.099 193.581 294.222 193.038 294.33 192.501 294.432 191.969 294.523 191.442 294.604 190.926 294.673 190.443 294.727 187.353 292.352 189.739 289.268 190.169 289.204 190.577 289.134 191.002 289.059 191.432 288.967 191.872 288.87 192.329 288.763 192.786 288.645 193.259 288.516 193.737 288.376 194.226 288.231 194.726 288.07 195.231 287.903 195.747 287.726 196.268 287.543 196.8 287.344 197.338 287.14 197.886 286.925 198.439 286.7 199.003 286.469 199.573 286.227 200.148 285.974 200.734 285.716 201.325 285.442 201.921 285.168 202.523 284.878 203.136 284.583 203.754 284.282 204.377 283.965 205.006 283.648 205.645 283.315 206.285 282.981 206.935 282.632 207.591 282.278 208.246 281.918 208.913 281.547 209.585 281.171 210.262 280.784 210.939 280.392 212.32 279.58 213.717 278.742 215.136 277.872 216.576 276.974 218.027 276.05 219.499 275.099 220.418 274.492 220.988 274.121 222.493 273.122 224.013 272.101 225.55 271.048 227.098 269.979 228.656 268.882 230.231 267.765 231.811 266.626 233.407 265.465 235.014 264.283 236.626 263.079 238.243 261.86 239.872 260.624 241.511 259.367 243.15 258.093 244.799 256.804 245.573 256.191 246.455 255.498 248.115 254.181 249.781 252.854 251.447 251.511 253.118 250.152 254.784 248.787 256.455 247.406 257.396 246.621 258.132 246.014 259.809 244.617 261.485 243.215 263.162 241.796 264.833 240.378 266.499 238.943 267.724 237.879 268.165 237.509 269.836 236.074 271.502 234.639 273.157 233.194 274.812 231.743 276.451 230.293 278.091 228.831 279.713 227.375 281.331 225.908 282.938 224.447 284.534 222.98 286.119 221.513 287.688 220.046 288.591 219.197 289.247 218.584 290.8 217.128 292.337 215.678 293.857 214.227 295.362 212.776 296.851 211.336 298.323 209.896 299.779 208.461 301.209 207.032 302.622 205.614 304.019 204.201 305.39 202.793 306.744 201.396 308.071 200.004 309.377 198.629 310.006 197.957 310.661 197.259 311.919 195.91 313.155 194.567 314.369 193.239 315.552 191.923 316.707 190.623 317.836 189.333 318.932 188.06 320.001 186.802 321.038 185.561 322.043 184.341 323.016 183.133 323.962 181.945 324.87 180.779 325.741 179.635 326.584 178.506 326.987 177.953 327.385 177.405 327.772 176.857 328.148 176.319 328.519 175.787 328.879 175.261 329.228 174.745 329.572 174.229 329.9 173.724 330.222 173.224 330.534 172.73 330.835 172.241 331.125 171.758 331.405 171.285 331.679 170.823 331.937 170.361 332.189 169.909 332.426 169.469 332.657 169.028 332.872 168.604 333.081 168.184 333.275 167.771 333.463 167.368 333.635 166.976 333.801 166.594 333.952 166.218 334.092 165.853 334.226 165.498 334.344 165.154 334.452 164.821 334.548 164.499 334.634 164.187 334.704 163.886 334.769 163.596 334.822 163.322 334.865 163.059 334.903 162.811 334.93 162.532 334.941 162.355 334.946 162.102 334.946 161.957 334.935 161.726 334.924 161.619 334.892 161.414 334.876 161.334 334.833 161.156 334.817 161.103 334.763 160.963 334.731 160.877 334.688 160.796 334.645 160.721 334.597 160.657 334.532 160.571 334.516 160.555 334.5 160.539 334.425 160.458 334.349 160.393 334.339 160.383 334.263 160.324 334.156 160.248 334.092 160.211 333.903 160.109 332.748 156.39 336.461 155.235 336.789 155.396"></polygon>
    <polygon fill="#FE8802" points="328.363 153.741 329.04 153.768 329.723 153.811 330.405 153.876 331.082 153.956 331.765 154.048 332.442 154.166 333.119 154.295 333.796 154.44 334.473 154.607 335.145 154.789 335.236 154.816 335.784 154.983 337.869 158.271 334.581 160.356 334.07 160.286 333.984 160.27 333.425 160.211 332.872 160.162 332.324 160.125 331.781 160.103 331.243 160.098 330.706 160.103 330.179 160.125 329.653 160.157 329.131 160.205 328.61 160.264 328.094 160.334 327.584 160.42 327.079 160.517 326.573 160.624 326.068 160.743 325.569 160.877 325.074 161.022 324.574 161.178 324.08 161.344 323.591 161.527 323.102 161.721 322.613 161.925 322.124 162.14 321.64 162.365 321.151 162.607 320.668 162.86 320.189 163.123 319.706 163.397 319.222 163.682 318.744 163.977 318.26 164.289 317.782 164.606 317.304 164.939 316.825 165.283 316.347 165.638 315.869 166.008 315.39 166.384 314.918 166.771 314.439 167.174 313.961 167.588 313.606 167.905 313.488 168.007 313.01 168.437 312.526 168.878 312.048 169.329 311.57 169.791 311.091 170.264 310.613 170.747 310.135 171.242 309.657 171.747 309.178 172.263 308.705 172.784 308.227 173.321 307.749 173.869 307.271 174.423 306.798 174.992 306.319 175.567 305.841 176.153 305.368 176.749 304.89 177.351 304.412 177.969 303.939 178.592 303.46 179.226 302.988 179.866 302.509 180.516 302.036 181.177 301.558 181.848 301.085 182.525 300.612 183.208 300.134 183.906 299.661 184.605 299.183 185.319 298.71 186.039 298.237 186.765 297.759 187.501 297.286 188.242 296.808 188.989 296.34 189.741 295.384 191.289 294.755 192.326 294.427 192.853 293.46 194.432 292.487 196.044 291.514 197.678 290.542 199.338 289.564 201.025 288.591 202.734 287.608 204.464 286.624 206.21 286.167 207.043 285.63 207.978 284.625 209.756 283.615 211.556 282.605 213.373 281.589 215.199 279.536 218.918 277.79 222.109 277.467 222.679 275.328 226.461 273.168 230.287 270.981 234.145 269.482 236.778 268.756 238.014 267.617 239.948 266.467 241.888 265.349 243.758 265.306 243.822 264.118 245.751 262.925 247.68 261.722 249.609 261.233 250.383 260.491 251.522 259.239 253.424 257.982 255.326 256.81 257.072 256.708 257.223 255.397 259.098 254.08 260.962 252.753 262.821 251.769 264.186 251.409 264.664 250.034 266.486 248.647 268.297 247.255 270.086 246.546 270.989 245.842 271.881 245.133 272.767 244.423 273.648 243.709 274.53 242.994 275.405 242.274 276.281 241.554 277.152 240.828 278.017 240.097 278.876 240.017 278.973 239.356 279.72 238.609 280.564 237.862 281.402 237.109 282.229 236.352 283.057 235.594 283.879 234.836 284.696 234.073 285.507 233.305 286.313 232.531 287.113 231.762 287.909 230.983 288.699 230.204 289.478 229.419 290.257 228.635 291.025 227.845 291.788 227.055 292.546 226.308 293.25 226.26 293.293 225.454 294.029 224.642 294.759 223.831 295.479 223.014 296.194 222.192 296.903 221.369 297.602 220.547 298.295 219.714 298.977 218.881 299.654 218.048 300.326 217.205 300.981 216.361 301.637 215.517 302.276 214.668 302.91 213.814 303.539 212.954 304.152 212.094 304.759 211.234 305.361 211.213 305.377 210.358 305.941 209.482 306.51 208.601 307.075 207.714 307.628 206.828 308.165 205.941 308.697 205.044 309.219 204.146 309.729 203.249 310.229 202.341 310.718 201.432 311.201 200.524 311.663 199.611 312.12 198.692 312.566 197.767 313.001 196.843 313.42 195.913 313.834 194.984 314.232 194.049 314.619 193.108 314.989 192.168 315.349 191.222 315.699 190.276 316.037 189.325 316.359 188.369 316.671 187.412 316.967 186.45 317.251 185.488 317.525 184.521 317.783 183.548 318.025 182.576 318.256 182.404 318.294 181.597 318.466 180.614 318.659 179.631 318.842 178.642 319.008 177.653 319.159 176.664 319.299 175.665 319.422 174.671 319.53 173.671 319.621 172.666 319.701 171.661 319.766 170.656 319.814 170.157 319.83 169.668 319.841 166.572 317.423 169.039 314.371 169.501 314.275 169.963 314.183 170.866 313.979 171.758 313.77 172.645 313.544 173.526 313.307 174.402 313.06 175.267 312.797 176.132 312.523 176.987 312.238 177.836 311.943 178.679 311.631 179.512 311.309 180.2 311.035 180.345 310.981 181.173 310.642 181.995 310.299 182.812 309.939 183.618 309.568 184.424 309.192 185.225 308.799 186.02 308.396 186.81 307.983 187.595 307.564 188.379 307.128 189.153 306.688 189.922 306.231 190.69 305.769 191.448 305.291 192.205 304.807 192.958 304.313 193.705 303.813 194.452 303.297 195.188 302.776 195.924 302.244 196.655 301.701 197.38 301.148 198.101 300.589 198.821 300.02 199.535 299.439 200.245 298.854 200.954 298.257 201.653 297.65 202.351 297.038 203.05 296.414 203.722 295.796 203.738 295.78 204.431 295.152 205.124 294.512 205.812 293.862 206.495 293.207 207.177 292.54 207.854 291.869 208.526 291.186 209.198 290.499 209.864 289.8 210.525 289.096 211.186 288.381 211.847 287.667 212.497 286.936 213.153 286.205 213.798 285.464 214.443 284.717 215.087 283.959 215.727 283.196 215.764 283.148 216.372 282.439 217.011 281.67 217.651 280.891 218.285 280.112 218.919 279.322 219.553 278.533 220.182 277.732 220.805 276.926 221.429 276.115 222.047 275.293 222.665 274.47 223.283 273.643 223.895 272.805 224.502 271.967 225.11 271.118 225.717 270.269 226.319 269.414 226.851 268.651 226.921 268.555 227.533 267.695 228.14 266.835 228.748 265.97 229.35 265.1 229.951 264.224 230.553 263.343 231.15 262.461 231.746 261.575 232.343 260.678 232.929 259.791 234.111 257.98 235.282 256.164 236.443 254.332 236.749 253.843 237.62 252.5 238.802 250.662 239.968 248.819 241.134 246.96 241.226 246.81 242.322 245.106 243.504 243.253 244.676 241.388 245.374 240.27 245.858 239.524 247.051 237.664 248.244 235.8 249.426 233.936 249.469 233.866 250.63 232.076 251.823 230.217 253.016 228.358 253.779 227.16 255.424 224.651 257.831 220.965 260.222 217.295 262.603 213.641 262.963 213.088 265.016 210.047 267.418 206.495 268.622 204.727 269.82 202.976 271.013 201.24 272.206 199.515 272.84 198.607 273.41 197.812 274.619 196.136 275.823 194.47 277.032 192.82 278.236 191.192 279.439 189.586 280.643 187.995 281.841 186.432 283.045 184.884 283.454 184.368 284.26 183.374 285.474 181.891 286.087 181.155 286.699 180.43 287.307 179.71 287.919 178.995 288.527 178.291 289.139 177.587 289.746 176.9 290.359 176.212 290.972 175.535 291.584 174.863 292.192 174.202 292.804 173.547 293.417 172.902 294.035 172.263 294.647 171.629 295.26 171.005 295.878 170.393 296.491 169.786 297.109 169.189 297.727 168.598 298.345 168.018 298.963 167.448 299.581 166.884 300.204 166.331 300.827 165.788 301.445 165.256 302.074 164.73 302.697 164.214 303.321 163.709 303.95 163.214 304.578 162.731 305.212 162.258 305.841 161.79 306.475 161.339 307.109 160.899 307.749 160.463 307.905 160.361 308.388 160.05 309.028 159.641 309.673 159.249 310.323 158.873 310.968 158.502 311.618 158.142 312.268 157.798 312.924 157.465 313.579 157.148 314.235 156.842 314.891 156.546 315.552 156.267 316.213 155.998 316.879 155.746 317.54 155.509 318.212 155.284 318.878 155.074 319.55 154.875 320.222 154.693 320.893 154.531 321.565 154.376 322.242 154.241 322.919 154.123 323.596 154.016 324.273 153.93 324.956 153.854 325.638 153.801 326.316 153.763 326.998 153.736 327.68 153.731 328.363 153.741"></polygon>
    <polygon fill="#FFAA3D" points="3.809 308.638 3.819 308.923 3.841 309.176 3.873 309.423 3.905 309.664 3.954 309.906 4.002 310.137 4.061 310.368 4.126 310.599 4.201 310.82 4.282 311.04 4.368 311.26 4.464 311.475 4.566 311.685 4.674 311.9 4.792 312.104 4.916 312.313 5.045 312.518 5.184 312.716 5.329 312.921 5.48 313.119 5.641 313.318 5.808 313.517 5.98 313.716 6.162 313.915 6.356 314.108 6.555 314.301 6.759 314.495 6.974 314.683 7.2 314.876 7.431 315.064 7.667 315.253 7.92 315.435 8.172 315.623 8.441 315.806 8.71 315.989 8.994 316.166 9.285 316.343 9.58 316.521 9.887 316.698 10.204 316.87 10.521 317.042 10.854 317.214 11.192 317.38 11.536 317.547 11.891 317.713 11.912 317.724 12.251 317.88 12.616 318.047 12.993 318.213 13.374 318.374 13.766 318.536 14.164 318.697 14.573 318.853 14.986 319.008 15.405 319.164 15.835 319.315 16.271 319.465 16.711 319.61 16.996 319.701 17.163 319.755 17.614 319.906 18.076 320.056 18.549 320.201 19.022 320.341 19.506 320.486 20 320.62 20.495 320.76 20.994 320.894 22.026 321.158 22.913 321.373 23.085 321.416 24.159 321.679 25.261 321.937 26.39 322.184 27.54 322.426 28.717 322.657 29.453 322.796 29.915 322.893 31.129 323.13 32.371 323.361 33.639 323.586 34.923 323.801 36.229 324.011 36.439 324.043 37.557 324.226 38.905 324.441 40.27 324.65 41.657 324.849 43.065 325.037 44.489 325.22 45.934 325.397 47.396 325.564 48.874 325.719 49.761 325.811 50.373 325.875 51.883 326.026 53.415 326.171 54.957 326.305 56.516 326.434 58.09 326.552 59.681 326.665 61.282 326.773 62.9 326.869 64.528 326.955 66.167 327.036 67.021 327.073 67.822 327.111 69.488 327.181 71.165 327.245 72.852 327.304 74.545 327.353 76.254 327.39 77.968 327.423 79.693 327.45 81.429 327.466 83.17 327.471 84.916 327.471 86.674 327.466 88.436 327.45 90.204 327.428 91.978 327.396 93.756 327.358 95.54 327.31 97.33 327.256 99.119 327.192 100.914 327.122 102.715 327.047 104.515 326.961 106.315 326.864 107.691 326.789 108.121 326.767 109.926 326.66 111.737 326.547 113.543 326.429 115.349 326.3 117.16 326.165 118.965 326.02 120.765 325.87 122.571 325.714 124.371 325.542 126.166 325.37 127.961 325.187 129.75 324.999 131.535 324.801 133.319 324.596 135.092 324.381 136.865 324.161 138.628 323.93 140.391 323.694 142.143 323.452 143.884 323.199 145.619 322.936 146.947 322.732 147.355 322.684 149.08 322.453 150.805 322.221 152.514 321.98 154.218 321.727 155.91 321.469 157.592 321.201 159.264 320.927 160.924 320.642 162.569 320.352 164.208 320.051 165.831 319.744 167.443 319.427 169.039 319.105 170.624 318.777 172.193 318.433 173.752 318.084 174.821 318.627 174.182 319.642 172.661 320.142 171.118 320.636 169.56 321.125 167.991 321.609 166.4 322.082 164.799 322.555 163.187 323.017 161.558 323.468 159.914 323.919 158.264 324.36 156.598 324.795 154.916 325.22 153.229 325.639 151.531 326.053 149.822 326.461 148.102 326.859 147.694 326.95 146.366 327.213 144.62 327.552 142.863 327.879 141.1 328.196 139.332 328.513 137.559 328.814 135.775 329.115 133.985 329.405 132.19 329.685 130.395 329.964 128.59 330.227 126.784 330.491 124.973 330.743 123.157 330.985 121.34 331.221 119.519 331.447 117.697 331.667 115.875 331.882 114.048 332.087 112.226 332.285 110.399 332.473 108.572 332.656 108.137 332.699 106.75 332.823 104.923 332.984 103.101 333.134 101.28 333.279 99.463 333.419 97.647 333.543 95.836 333.666 94.025 333.774 92.219 333.881 90.419 333.973 88.624 334.064 86.835 334.139 85.051 334.214 83.272 334.273 81.499 334.327 79.736 334.376 77.979 334.413 76.232 334.44 74.491 334.461 72.761 334.478 71.036 334.478 69.321 334.472 67.618 334.461 66.796 334.451 65.925 334.435 64.243 334.397 62.577 334.354 60.917 334.3 59.272 334.236 57.639 334.166 56.016 334.085 54.409 333.994 52.813 333.897 51.233 333.79 49.669 333.677 49.035 333.629 48.122 333.548 46.585 333.408 45.069 333.258 43.57 333.097 42.081 332.925 40.614 332.747 39.169 332.565 37.734 332.366 36.321 332.162 35.144 331.984 34.923 331.947 33.553 331.7 32.199 331.447 30.866 331.184 29.555 330.915 28.265 330.63 27.771 330.518 26.997 330.324 25.756 330.002 24.536 329.669 23.337 329.33 22.16 328.981 21.01 328.621 20.828 328.562 19.887 328.234 18.796 327.842 18.254 327.638 17.716 327.433 17.19 327.229 16.668 327.02 16.158 326.81 15.647 326.601 15.148 326.386 14.653 326.171 14.47 326.085 14.164 325.945 13.686 325.714 13.213 325.483 12.751 325.252 12.294 325.016 11.843 324.779 11.397 324.537 10.956 324.296 10.526 324.054 10.101 323.807 9.688 323.554 9.279 323.301 8.898 323.06 8.876 323.049 8.484 322.786 8.102 322.517 7.726 322.248 7.355 321.98 6.995 321.706 6.641 321.426 6.297 321.147 5.958 320.867 5.63 320.583 5.308 320.293 4.991 320.002 4.69 319.707 4.389 319.411 4.099 319.11 3.819 318.81 3.551 318.503 3.287 318.197 3.035 317.88 2.788 317.568 2.551 317.246 2.325 316.924 2.111 316.601 1.901 316.268 1.708 315.94 1.519 315.602 1.353 315.285 1.342 315.263 1.175 314.919 1.025 314.576 .88 314.226 .751 313.872 .633 313.522 .525 313.162 .429 312.802 .343 312.442 .267 312.082 .208 311.717 .16 311.352 .122 310.986 .095 310.616 .085 310.25 .085 309.879 .095 309.509 .122 309.143 .16 308.773 .203 308.434 2.111 306.731 3.809 308.638"></polygon>
    <polygon fill="#FB6000" points="44.602 286.066 45.854 286.109 47.229 286.168 48.621 286.232 50.029 286.313 51.448 286.404 52.888 286.501 54.334 286.614 55.801 286.732 57.279 286.861 58.773 287.006 60.277 287.156 61.798 287.312 63.33 287.484 64.877 287.661 66.436 287.85 68.005 288.043 69.59 288.247 71.192 288.462 72.798 288.682 74.421 288.913 76.055 289.15 77.705 289.397 79.36 289.65 81.031 289.907 82.713 290.176 84.406 290.456 86.109 290.735 87.824 291.025 89.549 291.321 91.284 291.627 93.031 291.933 94.783 292.25 96.551 292.573 98.33 292.9 101.903 293.572 105.52 294.27 109.174 294.985 112.86 295.721 116.579 296.473 116.735 296.506 120.325 297.263 124.097 298.069 127.902 298.886 131.728 299.719 135.581 300.562 139.456 301.422 143.357 302.287 151.208 304.044 154.631 304.813 159.124 305.85 167.093 307.687 175.106 309.53 183.151 311.368 187.176 312.281 191.141 313.173 191.206 313.189 195.231 314.124 199.256 315.054 203.281 315.973 207.301 316.886 211.315 317.783 215.324 318.67 219.322 319.546 223.315 320.405 224.218 320.593 227.286 321.276 231.247 322.141 235.196 322.984 237.152 323.398 238.808 323.747 239.114 323.812 241.07 324.236 243.021 324.656 244.961 325.069 246.901 325.478 248.835 325.875 250.764 326.273 251.748 326.472 252.688 326.676 254.601 327.084 256.509 327.487 258.406 327.879 260.303 328.266 262.195 328.648 263.662 328.943 264.075 329.029 265.946 329.421 267.81 329.808 269.664 330.184 271.518 330.55 273.362 330.915 275.194 331.264 275.339 331.291 277.016 331.641 278.832 332.011 280.638 332.371 282.438 332.721 284.227 333.064 286.012 333.398 287.785 333.72 289.548 334.037 291.305 334.338 293.051 334.633 294.787 334.918 296.517 335.192 297.786 335.386 298.232 335.461 299.935 335.751 301.628 336.03 303.315 336.299 304.987 336.557 306.653 336.804 308.308 337.041 309.952 337.261 311.58 337.47 313.203 337.669 314.81 337.857 316.412 338.029 317.997 338.196 318.69 338.26 319.571 338.357 321.135 338.524 322.683 338.679 324.225 338.819 325.751 338.948 327.267 339.061 328.766 339.163 330.255 339.249 331.732 339.319 333.194 339.378 334.645 339.421 336.085 339.448 337.509 339.464 337.59 339.464 338.923 339.496 340.331 339.512 341.018 339.518 341.706 339.518 342.394 339.512 343.082 339.501 343.764 339.491 344.442 339.475 345.119 339.453 345.785 339.432 346.457 339.405 347.118 339.373 347.779 339.335 348.44 339.292 349.095 339.249 349.746 339.201 350.39 339.152 351.035 339.093 351.675 339.034 352.309 338.97 352.943 338.9 353.572 338.83 354.2 338.749 354.818 338.669 355.436 338.583 356.054 338.491 356.662 338.4 357.269 338.303 357.876 338.201 358.473 338.094 359.069 337.981 359.666 337.863 360.251 337.744 360.837 337.621 361.418 337.492 361.998 337.358 362.573 337.223 363.143 337.078 363.707 336.933 364.271 336.783 364.83 336.621 365.383 336.466 365.937 336.299 366.485 336.127 367.028 335.955 367.098 335.928 367.571 335.783 368.113 335.611 368.651 335.434 369.188 335.257 369.72 335.069 370.247 334.875 370.768 334.682 371.289 334.478 371.805 334.268 372.321 334.059 372.832 333.844 373.337 333.618 373.837 333.392 374.336 333.156 374.831 332.919 375.325 332.672 375.814 332.425 376.298 332.167 376.776 331.909 377.254 331.641 377.727 331.372 378.195 331.093 378.662 330.808 379.124 330.518 379.587 330.222 380.038 329.921 380.489 329.615 380.935 329.303 381.381 328.986 381.822 328.659 381.924 328.583 382.268 328.32 384.837 328.331 384.826 330.899 384.552 331.254 384.471 331.361 384.095 331.823 383.714 332.285 383.327 332.737 382.929 333.188 382.526 333.639 382.118 334.08 381.704 334.521 381.285 334.956 380.855 335.386 380.42 335.81 379.979 336.235 379.533 336.648 379.081 337.062 378.619 337.47 378.152 337.879 377.684 338.276 377.206 338.674 376.717 339.066 376.228 339.453 375.734 339.84 375.228 340.221 374.723 340.592 374.207 340.963 373.686 341.334 373.159 341.694 372.627 342.054 372.09 342.408 371.547 342.758 370.999 343.101 370.516 343.397 370.44 343.44 369.876 343.768 369.306 344.085 368.726 344.402 368.146 344.713 367.56 345.02 366.969 345.326 366.372 345.621 365.77 345.917 365.163 346.207 364.551 346.497 363.933 346.777 363.309 347.056 362.686 347.33 362.052 347.599 361.418 347.862 360.773 348.125 360.128 348.378 359.478 348.63 358.822 348.883 358.161 349.125 357.5 349.367 356.828 349.603 356.157 349.834 355.479 350.065 354.797 350.291 354.109 350.511 353.416 350.726 352.723 350.941 352.024 351.15 351.32 351.355 350.611 351.559 349.896 351.758 349.181 351.951 348.461 352.139 347.736 352.327 347.005 352.51 346.274 352.687 345.532 352.864 344.791 353.036 344.049 353.203 343.297 353.37 342.545 353.531 341.781 353.692 340.266 353.993 338.815 354.267 338.724 354.283 337.165 354.525 335.591 354.756 334.006 354.971 332.409 355.175 330.792 355.363 329.169 355.54 327.53 355.701 325.875 355.852 324.209 355.992 322.532 356.115 320.845 356.228 319.141 356.33 318.185 356.379 317.427 356.405 315.702 356.448 313.966 356.486 312.22 356.507 310.463 356.518 308.695 356.518 306.916 356.507 305.126 356.486 303.332 356.454 301.521 356.405 299.704 356.352 297.877 356.287 296.039 356.217 295.561 356.196 294.196 356.104 292.347 355.97 290.488 355.83 288.618 355.675 286.742 355.513 284.862 355.347 282.97 355.164 281.073 354.976 279.171 354.777 277.258 354.573 275.339 354.358 273.41 354.133 271.631 353.923 271.481 353.901 269.546 353.627 267.606 353.348 265.661 353.058 263.71 352.762 261.754 352.456 259.793 352.144 259.357 352.075 257.826 351.806 255.859 351.457 253.887 351.097 251.914 350.731 249.931 350.361 247.949 349.984 246.976 349.796 245.966 349.587 243.977 349.168 241.989 348.749 239.995 348.319 237.996 347.884 235.997 347.443 233.993 347.002 233.681 346.933 231.994 346.535 229.984 346.057 225.98 345.095 221.961 344.117 218.849 343.343 217.936 343.112 213.916 342.059 209.891 340.99 205.866 339.915 201.841 338.824 197.816 337.723 193.796 336.611 189.776 335.499 185.762 334.376 185.698 334.354 181.764 333.21 177.771 332.049 169.823 329.712 161.918 327.38 154.073 325.059 149.661 323.753 146.307 322.743 138.623 320.438 134.818 319.304 131.04 318.181 127.284 317.069 123.56 315.978 119.857 314.898 116.192 313.839 112.705 312.84 112.554 312.797 108.959 311.76 105.396 310.744 101.866 309.75 98.378 308.783 94.922 307.843 93.219 307.381 91.515 306.93 89.828 306.478 88.151 306.043 86.48 305.608 84.825 305.183 83.181 304.77 81.547 304.361 79.924 303.958 78.312 303.566 76.716 303.184 75.131 302.808 73.556 302.443 71.998 302.088 70.45 301.739 68.913 301.401 67.392 301.073 65.882 300.75 64.388 300.439 62.905 300.143 61.438 299.853 59.987 299.568 58.547 299.3 57.123 299.042 55.715 298.795 54.323 298.558 52.942 298.333 51.577 298.118 50.233 297.913 48.901 297.72 47.584 297.537 46.284 297.371 45.005 297.21 43.839 297.081 43.736 297.064 42.49 296.887 41.264 296.721 40.05 296.57 38.852 296.43 37.675 296.307 36.514 296.194 35.369 296.092 34.241 296.011 33.134 295.936 32.043 295.882 30.974 295.839 29.92 295.807 28.883 295.791 27.867 295.791 26.863 295.807 26.384 295.818 25.895 295.834 25.417 295.856 24.939 295.877 24.466 295.904 23.998 295.936 23.541 295.968 23.085 296.006 22.633 296.049 22.187 296.092 21.747 296.14 21.311 296.194 20.876 296.248 20.452 296.312 20.032 296.371 19.619 296.441 19.205 296.511 18.802 296.586 18.404 296.667 18.006 296.747 17.62 296.833 17.233 296.925 16.856 297.016 16.48 297.113 16.115 297.215 15.749 297.317 15.395 297.424 15.04 297.537 14.696 297.656 14.352 297.774 14.019 297.897 13.686 298.021 13.358 298.15 13.041 298.284 12.724 298.424 12.412 298.564 12.111 298.709 11.81 298.859 11.515 299.015 11.225 299.171 10.94 299.332 10.66 299.493 10.386 299.665 10.118 299.837 9.854 300.009 9.596 300.192 9.344 300.374 9.091 300.562 8.849 300.756 8.608 300.949 8.371 301.153 8.14 301.358 7.914 301.567 7.694 301.782 7.479 302.002 7.264 302.223 7.06 302.448 6.856 302.685 6.657 302.921 6.463 303.163 6.275 303.41 6.093 303.663 5.91 303.921 5.733 304.189 5.566 304.458 5.399 304.732 5.238 305.011 5.077 305.296 4.926 305.586 4.781 305.887 4.636 306.188 4.502 306.5 4.368 306.817 4.239 307.139 4.115 307.467 4.002 307.8 3.889 308.144 3.776 308.509 1.605 309.922 .23 307.725 .289 307.316 .364 306.892 .439 306.473 .531 306.054 .622 305.64 .724 305.232 .837 304.829 .955 304.426 1.084 304.028 1.218 303.636 1.358 303.249 1.509 302.862 1.665 302.481 1.831 302.104 2.008 301.728 2.186 301.363 2.374 300.998 2.573 300.638 2.777 300.283 2.992 299.928 3.207 299.584 3.438 299.241 3.669 298.902 3.911 298.569 4.163 298.241 4.416 297.919 4.679 297.602 4.953 297.285 5.233 296.979 5.518 296.672 5.808 296.371 6.103 296.081 6.41 295.791 6.721 295.506 7.038 295.227 7.366 294.947 7.694 294.679 8.033 294.416 8.376 294.158 8.726 293.9 9.08 293.647 9.446 293.405 9.811 293.164 10.187 292.927 10.564 292.696 10.951 292.47 11.343 292.245 11.735 292.03 12.138 291.815 12.547 291.611 12.96 291.407 13.38 291.208 13.799 291.009 14.229 290.821 14.664 290.633 15.105 290.45 15.551 290.273 15.997 290.101 16.453 289.934 16.916 289.768 17.378 289.607 17.851 289.451 18.323 289.3 18.802 289.15 19.291 289.005 19.78 288.865 20.274 288.725 20.774 288.596 21.279 288.462 21.784 288.339 22.3 288.215 22.821 288.097 23.343 287.984 23.869 287.876 24.407 287.769 24.944 287.661 25.481 287.565 26.04 287.468 27.137 287.285 28.265 287.113 29.41 286.958 30.571 286.818 31.753 286.689 32.946 286.571 34.16 286.469 35.396 286.377 36.643 286.297 37.911 286.232 39.196 286.173 40.496 286.13 41.813 286.098 43.145 286.076 44.494 286.066 44.602 286.066"></polygon>
  </g>
</svg>