<svg xmlns="http://www.w3.org/2000/svg" viewBox="0 0 1762 413" width="1762" height="413">
	<style>
		tspan { white-space:pre }
		.shp0 { fill: #8e979c } 
		.shp1 { fill: #c80251 } 
		.shp2 { fill: #de66c8 } 
		.shp3 { fill: #fe8802 } 
		.shp4 { fill: #ffaa3d } 
		.shp5 { fill: #fb6000 } 
		.txt6 { font-size: 116px;fill: #8e979c;font-family: "P TSerif" } 
	</style>
	<g id="lifestyle-dental-and-implant-clinic">
		<g id="lifestyle-logo">
			<g id="Group">
				<path id="Shape" fill-rule="evenodd" class="shp0" d="M564.5 230.02C563.29 236.31 558.77 256.35 557.01 262.74L463.05 262.74L463.05 256.23C480.46 255.14 482.33 253.92 482.33 236.31L482.33 153.38C482.33 135.98 480.9 134.98 463.27 133.55L463.27 127.17L517.25 127.17L517.25 133.55C500.28 134.76 498.08 135.76 498.08 153.38L498.08 234.87C498.08 246.21 499.29 250.07 503.15 252.49C507.22 254.8 514.6 255.14 523.85 255.14C535.31 255.14 542.25 254.14 546.99 249.08C550.84 244.89 554.47 238.62 557.78 229.04L564.5 230.02ZM585.98 139.83C585.98 133.66 590.71 129.26 596.44 129.26C601.95 129.26 606.24 133.66 606.24 139.83C606.24 145.12 601.95 150.07 596.22 150.07C590.71 150.07 585.98 145.12 585.98 139.83ZM574.96 262.74L574.96 256.79C588.51 255.79 590.16 254.36 590.16 240.49L590.16 197.32C590.16 184.65 589.72 183.77 576.39 182.01L576.39 176.62C587.08 174.63 596.22 172.1 604.81 168.02L604.81 240.49C604.81 254.36 606.24 255.79 620.01 256.79L620.01 262.74L574.96 262.74ZM645.79 171.11L645.79 167.7C645.79 161.09 646.55 154.59 647.77 150.07C649.42 145.34 652.72 135.32 663.51 125.52C670.9 119.24 678.94 115.49 686.43 114.28C693.59 114.94 699.98 117.59 703.28 121.88C704.82 123.86 705.04 126.73 704.27 129.04C703.39 130.69 702.62 132.12 700.52 133.55C698.76 135.1 697.11 135.1 694.8 133.11C691.38 129.59 685.21 125.96 678.5 125.96C672.55 125.96 669.24 128.15 666.16 132.12C663.51 135.98 660.66 146.22 660.66 163.95L660.66 171.11L685.43 171.11C686.65 172.98 685.65 178.04 683.34 179.7L660.66 179.7L660.66 239.61C660.66 254.8 661.86 255.36 678.72 257.23L678.72 262.74L630.58 262.74L630.58 256.79C644.13 255.79 645.79 254.36 645.79 241.04L645.79 179.7L631.02 179.7L630.04 177.5L635.54 171.11L645.79 171.11ZM766.5 245.99C753.06 261.74 739.08 265.16 732.58 265.16C707.57 265.16 692.49 244.34 692.49 220.66C692.49 206.35 697.44 193.24 706.03 183.77C714.4 174.41 725.64 168.68 735.99 168.68L736.21 168.68C753.61 168.68 767.49 183.99 767.49 200.73C767.49 205.47 766.72 206.9 763.09 207.89C759.78 208.33 733.02 210.42 707.46 211.2C707.57 239.61 724.43 251.5 738.74 251.5C747.45 251.5 755.05 247.76 762.87 240.82L766.5 245.99ZM731.36 176.84C721.56 176.84 712.09 185.64 708.24 202.16C720.46 202.38 732.58 202.16 745.47 201.83C749.54 201.61 750.75 200.4 750.75 197.32C750.75 186.3 743.15 176.84 731.59 176.84L731.36 176.84ZM834.79 196.33C830.94 183.44 823.99 175.4 813.97 175.4C805.6 175.4 800.1 181.79 800.1 190.38C800.1 200.18 808.8 204.92 817.83 208.33C833.36 214.72 844.37 222.21 844.37 236.53C844.37 255.36 826.64 265.16 810.12 265.16C799.22 265.16 789.41 261.08 786.11 258C784.45 254.92 782.47 240.82 782.47 233.44L788.97 232.45C792.49 246.55 801.31 258 813.97 258C821.68 258 829.5 251.94 829.5 242.69C829.5 233.44 822.56 228.59 812.87 223.86C798.99 217.58 786.33 211.2 786.33 195.23C786.33 180.91 798.66 168.68 817.61 168.68C826.2 168.68 831.71 170.55 836 172.32C838.1 177.06 840.08 188.95 840.96 194.67L834.79 196.33ZM899 262.3C895.15 264.39 891.62 265.16 889.42 265.16C876.75 265.16 869.7 256.79 869.7 240.6L869.7 179.7L854.83 179.7L853.95 177.28L859.68 171.11L869.7 171.11L869.7 156.35L881.16 142.69L884.25 143.14L884.25 171.11L908.58 171.11C910.68 173.2 910.02 177.82 907.37 179.7L884.25 179.7L884.25 233.33C884.25 250.07 891.18 253.38 896.58 253.38C902.09 253.38 907.37 251.06 910.02 249.63L912.11 255.14L899 262.3ZM1014.77 177.06C1003.53 178.71 1001.55 180.36 995.82 192.14C990.64 203.05 984.37 220.22 969.82 254.92C955.73 288.73 951.21 300.18 948.57 311.19C947.36 315.04 944.61 316.14 941.74 316.14C935.46 316.14 929.74 310.97 929.74 306.24C929.74 303.26 931.61 300.95 935.02 298.75C941.41 294.89 945.49 289.27 950.22 280.35C954.29 272.54 955.73 268.02 956.94 265.38C957.71 262.3 957.71 259.21 956.72 255.79C948.57 233.44 939.98 208.99 933.15 192.8C928.74 181.57 926.43 178.26 914.75 177.06L914.75 171.11L955.73 171.11L955.73 177.06C946.03 178.26 945.05 180.91 947.69 188.51L967.29 241.92C973.46 226.5 982.49 203.05 987.34 188.73C989.87 180.69 988.44 178.26 976.33 177.06L976.33 171.11L1014.77 171.11L1014.77 177.06ZM1016.53 262.74L1016.53 256.79C1030.08 255.79 1032.17 254.36 1032.17 240.6L1032.17 143.36C1032.17 128.82 1030.74 128.15 1016.97 127.39L1016.97 121.88C1027.98 120.45 1040.32 116.7 1046.6 114.28L1046.6 240.6C1046.6 254.36 1048.47 255.79 1062.35 256.79L1062.35 262.74L1016.53 262.74ZM1148.48 245.99C1135.04 261.74 1121.06 265.16 1114.55 265.16C1089.55 265.16 1074.46 244.34 1074.46 220.66C1074.46 206.35 1079.42 193.24 1088.01 183.77C1096.38 174.41 1107.62 168.68 1117.97 168.68L1118.19 168.68C1135.59 168.68 1149.47 183.99 1149.47 200.73C1149.47 205.47 1148.7 206.9 1145.07 207.89C1141.76 208.33 1114.99 210.42 1089.44 211.2C1089.55 239.61 1106.41 251.5 1120.72 251.5C1129.42 251.5 1137.02 247.76 1144.85 240.82L1148.48 245.99ZM1113.34 176.84C1103.54 176.84 1094.07 185.64 1090.22 202.16C1102.44 202.38 1114.55 202.16 1127.44 201.83C1131.52 201.61 1132.73 200.4 1132.73 197.32C1132.73 186.3 1125.13 176.84 1113.56 176.84L1113.34 176.84ZM1267.76 127.17C1294.64 127.17 1313.81 132.23 1326.69 144.78C1336.93 154.81 1344.31 170.11 1344.31 189.72C1344.31 214.5 1334.73 233.44 1318.76 245.55C1303.01 257.67 1282.96 262.74 1257.41 262.74L1208.28 262.74L1208.28 256.35C1226.68 255.14 1228.33 254.14 1228.33 236.53L1228.33 153.38C1228.33 135.76 1226.68 135.1 1210.38 133.66L1210.38 127.17L1267.76 127.17ZM1244.53 234.76C1244.53 250.51 1251.46 254.58 1267.43 254.58C1308.08 254.58 1325.92 225.07 1325.92 192.36C1325.92 171.55 1317.66 152.5 1300.14 142.47C1290.68 136.97 1278.45 134.76 1264.79 134.76C1254.88 134.76 1249.37 135.76 1247.39 137.41C1245.29 139.06 1244.53 141.04 1244.53 149.08L1244.53 234.76ZM1437.82 245.99C1424.39 261.74 1410.4 265.16 1403.9 265.16C1378.9 265.16 1363.81 244.34 1363.81 220.66C1363.81 206.35 1368.76 193.24 1377.36 183.77C1385.73 174.41 1396.96 168.68 1407.32 168.68L1407.54 168.68C1424.94 168.68 1438.82 183.99 1438.82 200.73C1438.82 205.47 1438.04 206.9 1434.41 207.89C1431.11 208.33 1404.34 210.42 1378.79 211.2C1378.9 239.61 1395.75 251.5 1410.07 251.5C1418.77 251.5 1426.37 247.76 1434.19 240.82L1437.82 245.99ZM1402.69 176.84C1392.89 176.84 1383.41 185.64 1379.56 202.16C1391.79 202.38 1403.9 202.16 1416.79 201.83C1420.86 201.61 1422.08 200.4 1422.08 197.32C1422.08 186.3 1414.47 176.84 1402.91 176.84L1402.69 176.84ZM1511.4 262.74L1511.4 256.79C1524.29 255.36 1525.94 253.7 1525.94 239.61L1525.94 205.25C1525.94 190.6 1521.1 180.69 1506.11 180.69C1497.08 180.69 1488.38 186.3 1481.77 192.36L1481.77 240.49C1481.77 254.92 1482.76 255.36 1496.09 256.79L1496.09 262.74L1451.7 262.74L1451.7 256.79C1465.8 255.36 1467.12 254.14 1467.12 240.6L1467.12 198.09C1467.12 184.65 1465.69 183.77 1454.24 182.01L1454.24 176.62C1464.26 174.85 1473.62 172.32 1481.77 168.02L1481.77 184.65C1485.85 181.57 1490.36 178.71 1495.65 174.96C1501.38 171.55 1507.33 168.68 1513.71 168.68C1530.02 168.68 1540.48 180.14 1540.48 200.18L1540.48 240.49C1540.48 254.8 1541.69 255.36 1554.36 256.79L1554.36 262.74L1511.4 262.74ZM1603.92 262.3C1600.07 264.39 1596.54 265.16 1594.34 265.16C1581.67 265.16 1574.63 256.79 1574.63 240.6L1574.63 179.7L1559.76 179.7L1558.87 177.28L1564.6 171.11L1574.63 171.11L1574.63 156.35L1586.08 142.69L1589.16 143.14L1589.16 171.11L1613.51 171.11C1615.6 173.2 1614.93 177.82 1612.29 179.7L1589.16 179.7L1589.16 233.33C1589.16 250.07 1596.1 253.38 1601.5 253.38C1607.01 253.38 1612.29 251.06 1614.93 249.63L1617.03 255.14L1603.92 262.3ZM1693.69 265.16C1690.94 265.16 1686.53 263.4 1684.66 261.52C1681.57 258.44 1680.36 255.36 1679.48 251.94C1670.78 257.67 1661.09 265.16 1653.81 265.16C1639.61 265.16 1629.26 253.16 1629.26 239.39C1629.26 229.58 1634.76 222.21 1646.66 218.57C1659.32 214.28 1674.63 208.33 1679.15 205.03L1679.15 202.05C1679.15 186.64 1671.33 178.04 1660.76 178.04C1656.24 178.04 1652.72 179.92 1650.74 182.34C1648.09 185.42 1646.44 189.5 1644.35 195.89C1643.79 198.97 1641.48 200.4 1638.4 200.4C1635.21 200.4 1629.8 196.44 1629.8 191.59C1629.8 188.51 1632.89 186.08 1636.75 183.22C1641.92 179.26 1655.25 171.11 1667.48 168.68C1673.42 168.68 1679.92 170.55 1684.21 174.41C1691.16 180.36 1693.47 188.73 1693.47 199.3L1693.47 238.84C1693.47 248.2 1696.88 251.5 1700.85 251.5C1703.27 251.5 1706.36 250.07 1708.34 249.08L1710.65 254.92L1693.69 265.16ZM1679.15 212.41C1674.41 214.72 1663.18 219.56 1658.44 221.66C1649.85 225.29 1645.23 229.36 1645.23 237.19C1645.23 247.65 1653.81 252.94 1660.76 252.94C1666.49 252.94 1675.07 248.2 1679.15 244.56L1679.15 212.41ZM1716.05 262.74L1716.05 256.79C1729.6 255.79 1731.69 254.36 1731.69 240.6L1731.69 143.36C1731.69 128.82 1730.26 128.15 1716.49 127.39L1716.49 121.88C1727.5 120.45 1739.84 116.7 1746.12 114.28L1746.12 240.6C1746.12 254.36 1747.99 255.79 1761.87 256.79L1761.87 262.74L1716.05 262.74Z" />
			</g>
			<path id="Path" class="shp1" d="M153.88 1.92L153.91 2.26L153.94 2.72L154.02 3.51L154.1 4.32L154.2 5.12L154.31 5.92L154.44 6.74L154.57 7.55L154.72 8.38L154.88 9.21L155.05 10.04L155.23 10.88L155.43 11.72L155.63 12.57L155.85 13.43L156.07 14.29L156.31 15.16L156.35 15.28L156.54 16.03L156.78 16.91L157.03 17.8L157.29 18.69L157.56 19.59L157.83 20.48L158.12 21.39L158.42 22.3L158.73 23.22L159.04 24.15L159.37 25.08L159.71 26.01L160.05 26.95L160.41 27.9L160.77 28.85L161.15 29.8L161.53 30.77L161.92 31.73L162.32 32.7L162.72 33.68L163.14 34.66L163.56 35.65L163.99 36.64L164.43 37.63L164.49 37.76L164.85 38.64L165.28 39.66L165.72 40.67L166.17 41.7L166.62 42.73L167.08 43.76L167.54 44.8L168.02 45.84L168.5 46.9L168.98 47.94L169.97 50.07L170.67 51.52L170.98 52.21L171.97 54.38L172.99 56.57L174.04 58.78L175.1 61.01L176.18 63.25L177.28 65.51L177.84 66.64L178.37 67.79L179.46 70.1L180.56 72.43L181.67 74.77L182.8 77.13L183.94 79.5L185.09 81.88L185.6 82.94L187.35 86.72L189.56 91.48L189.62 91.62L191.84 96.59L193.49 100.26L194.08 101.62L196.26 106.7L197.35 109.26L197.61 109.86L198.42 111.83L199.48 114.42L200.54 117L201.6 119.61L202.07 120.78L202.63 122.21L203.65 124.83L204.66 127.46L205.66 130.09L206.66 132.72L207.64 135.36L208.61 138L209.56 140.64L210.51 143.29L211.43 145.92L211.44 145.94L212.33 148.59L212.77 149.92L213.21 151.25L213.64 152.58L214.06 153.91L214.49 155.24L214.91 156.56L215.31 157.9L215.72 159.22L216.13 160.55L216.52 161.88L216.91 163.2L217.3 164.53L217.68 165.85L218.05 167.17L218.42 168.5L218.78 169.82L219.13 171.15L219.48 172.47L219.83 173.79L219.98 174.38L220.16 175.11L220.48 176.43L220.8 177.75L221.11 179.06L221.41 180.38L221.7 181.7L221.99 183.01L222.27 184.32L222.54 185.63L222.8 186.94L223.06 188.25L223.31 189.55L223.55 190.86L223.78 192.16L224 193.46L224.22 194.75L224.42 196.05L224.62 197.34L224.81 198.64L224.99 199.92L225.15 201.21L225.31 202.5L225.46 203.78L225.58 204.83L225.6 205.06L225.73 206.34L225.85 207.61L225.95 208.89L226.04 210.15L226.13 211.42L226.2 212.69L226.26 213.94L226.32 215.2L226.36 216.46L226.39 217.71L226.41 218.96L226.41 220.2L226.41 221.44L226.39 222.68L226.37 223.91L226.33 225.14L226.28 226.37L226.22 227.59L226.14 228.8L226.05 230.02L225.95 231.23L225.84 232.44L225.71 233.64L225.57 234.84L225.42 236.03L225.25 237.22L225.07 238.4L224.87 239.58L224.66 240.75L224.44 241.93L224.21 243.09L223.96 244.25L223.7 245.4L223.42 246.55L223.12 247.69L222.81 248.83L222.49 249.96L222.15 251.09L221.8 252.21L221.43 253.32L221.05 254.43L220.65 255.54L220.24 256.63L219.81 257.71L219.59 258.26L219.36 258.8L219.13 259.34L218.9 259.88L218.66 260.41L218.42 260.95L218.17 261.48L217.93 262.01L217.83 262.21L217.66 262.53L217.38 263.05L217.11 263.57L216.82 264.08L216.54 264.6L216.25 265.11L215.95 265.62L215.65 266.13L215.35 266.63L215.04 267.13L214.73 267.63L214.42 268.13L214.1 268.62L213.78 269.12L213.45 269.61L213.12 270.1L212.78 270.59L212.44 271.07L212.1 271.55L211.75 272.03L211.4 272.51L211.04 272.99L210.68 273.46L210.31 273.93L209.95 274.39L209.58 274.86L209.2 275.33L208.82 275.79L208.44 276.25L208.04 276.71L207.65 277.16L207.25 277.61L206.85 278.06L206.45 278.51L206.03 278.95L205.62 279.4L205.2 279.83L204.78 280.27L204.35 280.71L203.92 281.14L203.49 281.57L203.04 282L202.6 282.42L202.15 282.84L201.7 283.27L201.24 283.68L200.78 284.1L200.31 284.51L199.84 284.92L199.36 285.32L198.88 285.73L198.4 286.14L197.91 286.53L197.42 286.93L196.92 287.32L196.42 287.71L195.92 288.11L195.41 288.49L194.89 288.88L194.37 289.26L193.85 289.64L193.32 290.01L192.79 290.39L192.25 290.76L191.71 291.13L191.17 291.49L189.15 291.28L189.43 289.27L189.9 288.84L190.37 288.41L190.82 287.97L191.28 287.54L191.73 287.1L192.17 286.67L192.61 286.23L193.04 285.79L193.47 285.36L193.9 284.92L194.32 284.47L194.73 284.03L195.13 283.58L195.54 283.14L195.94 282.69L196.33 282.25L196.71 281.79L197.1 281.35L197.48 280.9L197.85 280.44L198.21 279.99L198.58 279.54L198.93 279.08L199.29 278.62L199.64 278.17L199.98 277.71L200.31 277.25L200.65 276.79L200.98 276.33L201.3 275.87L201.62 275.4L201.94 274.94L202.25 274.48L202.55 274.01L202.85 273.54L203.15 273.07L203.44 272.61L203.73 272.14L204.01 271.67L204.29 271.19L204.56 270.72L204.83 270.25L205.09 269.77L205.35 269.3L205.61 268.82L205.86 268.35L206.11 267.87L206.35 267.39L206.59 266.91L206.82 266.43L207.05 265.95L207.28 265.46L207.5 264.98L207.72 264.5L207.93 264.01L208.14 263.52L208.34 263.04L208.55 262.55L208.74 262.06L208.93 261.57L209.12 261.08L209.31 260.59L209.49 260.1L209.66 259.61L209.84 259.11L209.94 258.81L210.01 258.62L210.2 258.14L210.37 257.64L210.55 257.15L210.72 256.66L210.89 256.17L211.06 255.68L211.22 255.18L211.37 254.69L211.68 253.69L211.97 252.69L212.24 251.68L212.5 250.68L212.74 249.66L212.97 248.65L213.2 247.62L213.4 246.59L213.59 245.56L213.77 244.53L213.93 243.49L214.09 242.45L214.22 241.4L214.35 240.35L214.46 239.29L214.56 238.22L214.65 237.16L214.73 236.09L214.79 235.02L214.84 233.94L214.88 232.85L214.91 231.76L214.92 230.67L214.92 229.58L214.91 228.48L214.89 227.38L214.86 226.27L214.82 225.16L214.76 224.04L214.69 222.93L214.62 221.8L214.53 220.68L214.43 219.55L214.32 218.41L214.21 217.27L214.07 216.13L213.93 214.99L213.78 213.84L213.62 212.69L213.45 211.53L213.27 210.37L213.08 209.21L212.88 208.05L212.66 206.88L212.63 206.67L212.45 205.71L212.23 204.54L211.99 203.36L211.75 202.18L211.5 201L211.24 199.81L210.97 198.62L210.69 197.43L210.41 196.23L210.11 195.03L209.81 193.84L209.49 192.63L209.18 191.43L208.85 190.22L208.51 189.01L208.17 187.8L207.82 186.59L207.46 185.37L207.09 184.15L206.72 182.93L206.34 181.71L205.95 180.48L205.55 179.26L205.33 178.59L205.16 178.03L204.75 176.8L204.35 175.56L203.93 174.33L203.51 173.09L203.09 171.85L202.65 170.61L202.21 169.37L201.77 168.13L201.31 166.88L200.86 165.64L200.4 164.39L199.93 163.14L199.46 161.9L198.98 160.65L198.5 159.39L198.01 158.15L197.51 156.89L197.01 155.64L196.51 154.39L195.5 151.88L195.49 151.86L194.48 149.36L193.46 146.83L192.41 144.31L191.36 141.79L190.29 139.26L189.21 136.74L188.12 134.21L187.01 131.69L185.9 129.16L185.29 127.78L184.79 126.64L183.7 124.11L182.59 121.58L181.48 119.06L180.63 117.13L180.37 116.54L179.28 114.02L177.08 108.97L176.5 107.62L174.94 103.94L172.83 98.91L172.77 98.78L170.79 93.9L169.22 90.01L168.8 88.9L167.85 86.41L166.91 83.92L165.97 81.44L165.05 78.97L164.14 76.52L163.24 74.07L162.79 72.86L162.38 71.64L161.56 69.2L160.75 66.78L159.96 64.37L159.19 61.98L158.44 59.6L157.7 57.24L157.47 56.49L157.01 54.89L156.36 52.55L156.04 51.39L155.73 50.23L155.43 49.08L155.13 47.93L154.83 46.78L154.54 45.65L154.25 44.52L153.98 43.39L153.71 42.27L153.48 41.29L153.46 41.15L153.22 40.02L152.99 38.91L152.78 37.8L152.56 36.7L152.36 35.61L152.16 34.52L151.97 33.44L151.79 32.36L151.62 31.29L151.45 30.22L151.29 29.16L151.14 28.12L151 27.07L150.86 26.03L150.74 25L150.62 23.98L150.51 22.96L150.41 21.95L150.33 20.95L150.24 19.96L150.17 18.97L150.11 17.99L150.06 17.02L150.02 16.18L150.01 16.05L150 15.09L150 14.14L150.01 13.2L150.03 12.26L150.05 11.34L150.09 10.42L150.14 9.51L150.2 8.61L150.27 7.72L150.35 6.84L150.44 5.97L150.54 5.11L150.66 4.26L150.78 3.42L150.91 2.58L151 2.11L151.06 1.77L152.55 0.44L153.88 1.92Z" />
			<path id="Path" class="shp2" d="M336.79 155.4L337.16 155.62L337.52 155.85L337.87 156.11L338.2 156.39L338.49 156.68L338.66 156.85L338.81 157.02L339.07 157.34L339.33 157.69L339.55 158.06L339.76 158.43L339.94 158.81L340.09 159.21L340.23 159.61L340.35 160.02L340.44 160.43L340.51 160.84L340.56 161.26L340.59 161.68L340.61 162.1L340.61 162.52L340.59 162.95L340.56 163.37L340.52 163.8L340.46 164.23L340.39 164.66L340.3 165.11L340.21 165.55L340.1 165.99L339.98 166.44L339.85 166.89L339.71 167.35L339.55 167.81L339.38 168.27L339.21 168.74L339.02 169.22L338.83 169.69L338.62 170.18L338.41 170.67L338.18 171.16L337.94 171.66L337.69 172.17L337.44 172.68L337.17 173.19L336.9 173.71L336.61 174.24L336.32 174.77L336.01 175.3L335.7 175.85L335.38 176.39L335.04 176.94L334.7 177.5L334.35 178.06L333.99 178.62L333.62 179.2L333.25 179.77L332.86 180.35L332.47 180.94L332.07 181.53L331.65 182.13L330.81 183.34L329.93 184.56L329.01 185.8L328.07 187.07L327.1 188.34L326.09 189.63L325.06 190.94L323.99 192.27L322.9 193.61L321.78 194.96L320.63 196.33L319.46 197.72L318.26 199.11L317.04 200.51L315.78 201.93L315.14 202.66L314.51 203.36L313.2 204.79L311.88 206.23L310.53 207.68L309.17 209.14L307.78 210.61L306.37 212.08L304.94 213.57L303.5 215.05L302.03 216.54L300.55 218.04L299.05 219.54L297.54 221.04L296.01 222.55L294.46 224.05L293.81 224.69L292.91 225.56L291.33 227.06L289.74 228.56L288.13 230.06L286.52 231.56L284.89 233.06L283.25 234.55L281.61 236.05L279.96 237.54L278.3 239.02L276.63 240.5L274.96 241.97L273.28 243.44L272.83 243.82L271.58 244.89L269.88 246.33L268.18 247.75L266.47 249.18L264.76 250.59L263.05 252L262.3 252.6L261.33 253.38L259.62 254.75L257.9 256.11L256.18 257.46L254.46 258.79L252.75 260.11L251.04 261.42L250.13 262.11L249.33 262.71L247.62 263.98L245.92 265.23L244.22 266.46L242.54 267.68L240.85 268.88L239.18 270.06L237.52 271.23L235.86 272.37L234.21 273.49L232.58 274.59L230.96 275.67L229.34 276.73L227.75 277.76L226.16 278.77L224.59 279.75L224 280.12L223.03 280.71L221.49 281.64L219.96 282.55L218.45 283.42L216.95 284.27L215.47 285.09L214.02 285.89L213.29 286.27L212.57 286.65L211.86 287.02L211.15 287.39L210.45 287.74L209.75 288.09L209.06 288.44L208.38 288.77L207.69 289.09L207.02 289.41L206.34 289.72L205.68 290.02L205.02 290.32L204.36 290.6L203.72 290.88L203.07 291.14L202.43 291.4L201.8 291.65L201.17 291.9L200.56 292.13L199.94 292.36L199.33 292.57L198.73 292.78L198.13 292.98L197.54 293.16L196.96 293.35L196.38 293.51L195.81 293.67L195.24 293.82L194.68 293.97L194.13 294.1L193.58 294.22L193.04 294.33L192.5 294.43L191.97 294.52L191.44 294.6L190.93 294.67L190.44 294.73L187.35 292.35L189.74 289.27L190.17 289.2L190.58 289.13L191 289.06L191.43 288.97L191.87 288.87L192.33 288.76L192.79 288.64L193.26 288.52L193.74 288.38L194.23 288.23L194.73 288.07L195.23 287.9L195.75 287.73L196.27 287.54L196.8 287.34L197.34 287.14L197.89 286.93L198.44 286.7L199 286.47L199.57 286.23L200.15 285.97L200.73 285.72L201.32 285.44L201.92 285.17L202.52 284.88L203.14 284.58L203.75 284.28L204.38 283.96L205.01 283.65L205.65 283.31L206.28 282.98L206.94 282.63L207.59 282.28L208.25 281.92L208.91 281.55L209.59 281.17L210.26 280.78L210.94 280.39L212.32 279.58L213.72 278.74L215.14 277.87L216.58 276.97L218.03 276.05L219.5 275.1L220.42 274.49L220.99 274.12L222.49 273.12L224.01 272.1L225.55 271.05L227.1 269.98L228.66 268.88L230.23 267.76L231.81 266.63L233.41 265.46L235.01 264.28L236.63 263.08L238.24 261.86L239.87 260.62L241.51 259.37L243.15 258.09L244.8 256.8L245.57 256.19L246.46 255.5L248.12 254.18L249.78 252.85L251.45 251.51L253.12 250.15L254.78 248.79L256.45 247.41L257.4 246.62L258.13 246.01L259.81 244.62L261.49 243.22L263.16 241.8L264.83 240.38L266.5 238.94L267.72 237.88L268.17 237.51L269.84 236.07L271.5 234.64L273.16 233.19L274.81 231.74L276.45 230.29L278.09 228.83L279.71 227.38L281.33 225.91L282.94 224.45L284.53 222.98L286.12 221.51L287.69 220.05L288.59 219.2L289.25 218.58L290.8 217.13L292.34 215.68L293.86 214.23L295.36 212.78L296.85 211.34L298.32 209.9L299.78 208.46L301.21 207.03L302.62 205.61L304.02 204.2L305.39 202.79L306.74 201.4L308.07 200L309.38 198.63L310.01 197.96L310.66 197.26L311.92 195.91L313.15 194.57L314.37 193.24L315.55 191.92L316.71 190.62L317.84 189.33L318.93 188.06L320 186.8L321.04 185.56L322.04 184.34L323.02 183.13L323.96 181.94L324.87 180.78L325.74 179.63L326.58 178.51L326.99 177.95L327.38 177.41L327.77 176.86L328.15 176.32L328.52 175.79L328.88 175.26L329.23 174.75L329.57 174.23L329.9 173.72L330.22 173.22L330.53 172.73L330.83 172.24L331.13 171.76L331.4 171.28L331.68 170.82L331.94 170.36L332.19 169.91L332.43 169.47L332.66 169.03L332.87 168.6L333.08 168.18L333.27 167.77L333.46 167.37L333.63 166.98L333.8 166.59L333.95 166.22L334.09 165.85L334.23 165.5L334.34 165.15L334.45 164.82L334.55 164.5L334.63 164.19L334.7 163.89L334.77 163.6L334.82 163.32L334.87 163.06L334.9 162.81L334.93 162.53L334.94 162.35L334.95 162.1L334.95 161.96L334.94 161.73L334.92 161.62L334.89 161.41L334.88 161.33L334.83 161.16L334.82 161.1L334.76 160.96L334.73 160.88L334.69 160.8L334.64 160.72L334.6 160.66L334.53 160.57L334.52 160.56L334.5 160.54L334.43 160.46L334.35 160.39L334.34 160.38L334.26 160.32L334.16 160.25L334.09 160.21L333.9 160.11L332.75 156.39L336.46 155.24L336.79 155.4Z" />
			<path id="Path" class="shp3" d="M328.36 153.74L329.04 153.77L329.72 153.81L330.4 153.88L331.08 153.96L331.76 154.05L332.44 154.17L333.12 154.29L333.8 154.44L334.47 154.61L335.14 154.79L335.24 154.82L335.78 154.98L337.87 158.27L334.58 160.36L334.07 160.29L333.98 160.27L333.43 160.21L332.87 160.16L332.32 160.13L331.78 160.1L331.24 160.1L330.71 160.1L330.18 160.13L329.65 160.16L329.13 160.21L328.61 160.26L328.09 160.33L327.58 160.42L327.08 160.52L326.57 160.62L326.07 160.74L325.57 160.88L325.07 161.02L324.57 161.18L324.08 161.34L323.59 161.53L323.1 161.72L322.61 161.93L322.12 162.14L321.64 162.37L321.15 162.61L320.67 162.86L320.19 163.12L319.71 163.4L319.22 163.68L318.74 163.98L318.26 164.29L317.78 164.61L317.3 164.94L316.82 165.28L316.35 165.64L315.87 166.01L315.39 166.38L314.92 166.77L314.44 167.17L313.96 167.59L313.61 167.91L313.49 168.01L313.01 168.44L312.53 168.88L312.05 169.33L311.57 169.79L311.09 170.26L310.61 170.75L310.13 171.24L309.66 171.75L309.18 172.26L308.7 172.78L308.23 173.32L307.75 173.87L307.27 174.42L306.8 174.99L306.32 175.57L305.84 176.15L305.37 176.75L304.89 177.35L304.41 177.97L303.94 178.59L303.46 179.23L302.99 179.87L302.51 180.52L302.04 181.18L301.56 181.85L301.08 182.53L300.61 183.21L300.13 183.91L299.66 184.6L299.18 185.32L298.71 186.04L298.24 186.76L297.76 187.5L297.29 188.24L296.81 188.99L296.34 189.74L295.38 191.29L294.75 192.33L294.43 192.85L293.46 194.43L292.49 196.04L291.51 197.68L290.54 199.34L289.56 201.03L288.59 202.73L287.61 204.46L286.62 206.21L286.17 207.04L285.63 207.98L284.63 209.76L283.62 211.56L282.61 213.37L281.59 215.2L279.54 218.92L277.79 222.11L277.47 222.68L275.33 226.46L273.17 230.29L270.98 234.15L269.48 236.78L268.76 238.01L267.62 239.95L266.47 241.89L265.35 243.76L265.31 243.82L264.12 245.75L262.93 247.68L261.72 249.61L261.23 250.38L260.49 251.52L259.24 253.42L257.98 255.33L256.81 257.07L256.71 257.22L255.4 259.1L254.08 260.96L252.75 262.82L251.77 264.19L251.41 264.66L250.03 266.49L248.65 268.3L247.25 270.09L246.55 270.99L245.84 271.88L245.13 272.77L244.42 273.65L243.71 274.53L242.99 275.4L242.27 276.28L241.55 277.15L240.83 278.02L240.1 278.88L240.02 278.97L239.36 279.72L238.61 280.56L237.86 281.4L237.11 282.23L236.35 283.06L235.59 283.88L234.84 284.7L234.07 285.51L233.31 286.31L232.53 287.11L231.76 287.91L230.98 288.7L230.2 289.48L229.42 290.26L228.63 291.02L227.84 291.79L227.06 292.55L226.31 293.25L226.26 293.29L225.45 294.03L224.64 294.76L223.83 295.48L223.01 296.19L222.19 296.9L221.37 297.6L220.55 298.3L219.71 298.98L218.88 299.65L218.05 300.33L217.21 300.98L216.36 301.64L215.52 302.28L214.67 302.91L213.81 303.54L212.95 304.15L212.09 304.76L211.23 305.36L211.21 305.38L210.36 305.94L209.48 306.51L208.6 307.07L207.71 307.63L206.83 308.17L205.94 308.7L205.04 309.22L204.15 309.73L203.25 310.23L202.34 310.72L201.43 311.2L200.52 311.66L199.61 312.12L198.69 312.57L197.77 313L196.84 313.42L195.91 313.83L194.98 314.23L194.05 314.62L193.11 314.99L192.17 315.35L191.22 315.7L190.28 316.04L189.32 316.36L188.37 316.67L187.41 316.97L186.45 317.25L185.49 317.52L184.52 317.78L183.55 318.02L182.58 318.26L182.4 318.29L181.6 318.47L180.61 318.66L179.63 318.84L178.64 319.01L177.65 319.16L176.66 319.3L175.66 319.42L174.67 319.53L173.67 319.62L172.67 319.7L171.66 319.77L170.66 319.81L170.16 319.83L169.67 319.84L166.57 317.42L169.04 314.37L169.5 314.27L169.96 314.18L170.87 313.98L171.76 313.77L172.65 313.54L173.53 313.31L174.4 313.06L175.27 312.8L176.13 312.52L176.99 312.24L177.84 311.94L178.68 311.63L179.51 311.31L180.2 311.04L180.34 310.98L181.17 310.64L182 310.3L182.81 309.94L183.62 309.57L184.42 309.19L185.22 308.8L186.02 308.4L186.81 307.98L187.59 307.56L188.38 307.13L189.15 306.69L189.92 306.23L190.69 305.77L191.45 305.29L192.21 304.81L192.96 304.31L193.71 303.81L194.45 303.3L195.19 302.78L195.92 302.24L196.66 301.7L197.38 301.15L198.1 300.59L198.82 300.02L199.53 299.44L200.25 298.85L200.95 298.26L201.65 297.65L202.35 297.04L203.05 296.41L203.72 295.8L203.74 295.78L204.43 295.15L205.12 294.51L205.81 293.86L206.5 293.21L207.18 292.54L207.85 291.87L208.53 291.19L209.2 290.5L209.86 289.8L210.53 289.1L211.19 288.38L211.85 287.67L212.5 286.94L213.15 286.2L213.8 285.46L214.44 284.72L215.09 283.96L215.73 283.2L215.76 283.15L216.37 282.44L217.01 281.67L217.65 280.89L218.28 280.11L218.92 279.32L219.55 278.53L220.18 277.73L220.81 276.93L221.43 276.12L222.05 275.29L222.66 274.47L223.28 273.64L223.9 272.81L224.5 271.97L225.11 271.12L225.72 270.27L226.32 269.41L226.85 268.65L226.92 268.56L227.53 267.69L228.14 266.83L228.75 265.97L229.35 265.1L229.95 264.22L230.55 263.34L231.15 262.46L231.75 261.57L232.34 260.68L232.93 259.79L234.11 257.98L235.28 256.16L236.44 254.33L236.75 253.84L237.62 252.5L238.8 250.66L239.97 248.82L241.13 246.96L241.23 246.81L242.32 245.11L243.5 243.25L244.68 241.39L245.37 240.27L245.86 239.52L247.05 237.66L248.24 235.8L249.43 233.94L249.47 233.87L250.63 232.08L251.82 230.22L253.02 228.36L253.78 227.16L255.42 224.65L257.83 220.97L260.22 217.29L262.6 213.64L262.96 213.09L265.02 210.05L267.42 206.5L268.62 204.73L269.82 202.98L271.01 201.24L272.21 199.51L272.84 198.61L273.41 197.81L274.62 196.14L275.82 194.47L277.03 192.82L278.24 191.19L279.44 189.59L280.64 188L281.84 186.43L283.05 184.88L283.45 184.37L284.26 183.37L285.47 181.89L286.09 181.16L286.7 180.43L287.31 179.71L287.92 179L288.53 178.29L289.14 177.59L289.75 176.9L290.36 176.21L290.97 175.53L291.58 174.86L292.19 174.2L292.8 173.55L293.42 172.9L294.04 172.26L294.65 171.63L295.26 171L295.88 170.39L296.49 169.79L297.11 169.19L297.73 168.6L298.35 168.02L298.96 167.45L299.58 166.88L300.2 166.33L300.83 165.79L301.44 165.26L302.07 164.73L302.7 164.21L303.32 163.71L303.95 163.21L304.58 162.73L305.21 162.26L305.84 161.79L306.48 161.34L307.11 160.9L307.75 160.46L307.9 160.36L308.39 160.05L309.03 159.64L309.67 159.25L310.32 158.87L310.97 158.5L311.62 158.14L312.27 157.8L312.92 157.47L313.58 157.15L314.24 156.84L314.89 156.55L315.55 156.27L316.21 156L316.88 155.75L317.54 155.51L318.21 155.28L318.88 155.07L319.55 154.88L320.22 154.69L320.89 154.53L321.56 154.38L322.24 154.24L322.92 154.12L323.6 154.02L324.27 153.93L324.96 153.85L325.64 153.8L326.32 153.76L327 153.74L327.68 153.73L328.36 153.74Z" />
			<path id="Path" class="shp4" d="M3.81 308.64L3.82 308.92L3.84 309.18L3.87 309.42L3.9 309.66L3.95 309.91L4 310.14L4.06 310.37L4.13 310.6L4.2 310.82L4.28 311.04L4.37 311.26L4.46 311.48L4.57 311.69L4.67 311.9L4.79 312.1L4.92 312.31L5.04 312.52L5.18 312.72L5.33 312.92L5.48 313.12L5.64 313.32L5.81 313.52L5.98 313.72L6.16 313.92L6.36 314.11L6.55 314.3L6.76 314.5L6.97 314.68L7.2 314.88L7.43 315.06L7.67 315.25L7.92 315.44L8.17 315.62L8.44 315.81L8.71 315.99L8.99 316.17L9.29 316.34L9.58 316.52L9.89 316.7L10.2 316.87L10.52 317.04L10.85 317.21L11.19 317.38L11.54 317.55L11.89 317.71L11.91 317.72L12.25 317.88L12.62 318.05L12.99 318.21L13.37 318.37L13.77 318.54L14.16 318.7L14.57 318.85L14.99 319.01L15.4 319.16L15.84 319.31L16.27 319.46L16.71 319.61L17 319.7L17.16 319.75L17.61 319.91L18.08 320.06L18.55 320.2L19.02 320.34L19.51 320.49L20 320.62L20.5 320.76L20.99 320.89L22.03 321.16L22.91 321.37L23.09 321.42L24.16 321.68L25.26 321.94L26.39 322.18L27.54 322.43L28.72 322.66L29.45 322.8L29.91 322.89L31.13 323.13L32.37 323.36L33.64 323.59L34.92 323.8L36.23 324.01L36.44 324.04L37.56 324.23L38.91 324.44L40.27 324.65L41.66 324.85L43.06 325.04L44.49 325.22L45.93 325.4L47.4 325.56L48.87 325.72L49.76 325.81L50.37 325.88L51.88 326.03L53.41 326.17L54.96 326.31L56.52 326.43L58.09 326.55L59.68 326.67L61.28 326.77L62.9 326.87L64.53 326.95L66.17 327.04L67.02 327.07L67.82 327.11L69.49 327.18L71.17 327.25L72.85 327.3L74.55 327.35L76.25 327.39L77.97 327.42L79.69 327.45L81.43 327.47L83.17 327.47L84.92 327.47L86.67 327.47L88.44 327.45L90.2 327.43L91.98 327.4L93.76 327.36L95.54 327.31L97.33 327.26L99.12 327.19L100.91 327.12L102.72 327.05L104.52 326.96L106.31 326.86L107.69 326.79L108.12 326.77L109.93 326.66L111.74 326.55L113.54 326.43L115.35 326.3L117.16 326.17L118.97 326.02L120.77 325.87L122.57 325.71L124.37 325.54L126.17 325.37L127.96 325.19L129.75 325L131.53 324.8L133.32 324.6L135.09 324.38L136.87 324.16L138.63 323.93L140.39 323.69L142.14 323.45L143.88 323.2L145.62 322.94L146.95 322.73L147.35 322.68L149.08 322.45L150.81 322.22L152.51 321.98L154.22 321.73L155.91 321.47L157.59 321.2L159.26 320.93L160.92 320.64L162.57 320.35L164.21 320.05L165.83 319.74L167.44 319.43L169.04 319.11L170.62 318.78L172.19 318.43L173.75 318.08L174.82 318.63L174.18 319.64L172.66 320.14L171.12 320.64L169.56 321.13L167.99 321.61L166.4 322.08L164.8 322.56L163.19 323.02L161.56 323.47L159.91 323.92L158.26 324.36L156.6 324.8L154.92 325.22L153.23 325.64L151.53 326.05L149.82 326.46L148.1 326.86L147.69 326.95L146.37 327.21L144.62 327.55L142.86 327.88L141.1 328.2L139.33 328.51L137.56 328.81L135.78 329.12L133.99 329.4L132.19 329.69L130.4 329.96L128.59 330.23L126.78 330.49L124.97 330.74L123.16 330.99L121.34 331.22L119.52 331.45L117.7 331.67L115.88 331.88L114.05 332.09L112.23 332.29L110.4 332.47L108.57 332.66L108.14 332.7L106.75 332.82L104.92 332.98L103.1 333.13L101.28 333.28L99.46 333.42L97.65 333.54L95.84 333.67L94.03 333.77L92.22 333.88L90.42 333.97L88.62 334.06L86.83 334.14L85.05 334.21L83.27 334.27L81.5 334.33L79.74 334.38L77.98 334.41L76.23 334.44L74.49 334.46L72.76 334.48L71.04 334.48L69.32 334.47L67.62 334.46L66.8 334.45L65.92 334.44L64.24 334.4L62.58 334.35L60.92 334.3L59.27 334.24L57.64 334.17L56.02 334.08L54.41 333.99L52.81 333.9L51.23 333.79L49.67 333.68L49.03 333.63L48.12 333.55L46.59 333.41L45.07 333.26L43.57 333.1L42.08 332.93L40.61 332.75L39.17 332.56L37.73 332.37L36.32 332.16L35.14 331.98L34.92 331.95L33.55 331.7L32.2 331.45L30.87 331.18L29.55 330.92L28.27 330.63L27.77 330.52L27 330.32L25.76 330L24.54 329.67L23.34 329.33L22.16 328.98L21.01 328.62L20.83 328.56L19.89 328.23L18.8 327.84L18.25 327.64L17.72 327.43L17.19 327.23L16.67 327.02L16.16 326.81L15.65 326.6L15.15 326.39L14.65 326.17L14.47 326.08L14.16 325.94L13.69 325.71L13.21 325.48L12.75 325.25L12.29 325.02L11.84 324.78L11.4 324.54L10.96 324.3L10.53 324.05L10.1 323.81L9.69 323.55L9.28 323.3L8.9 323.06L8.88 323.05L8.48 322.79L8.1 322.52L7.73 322.25L7.36 321.98L7 321.71L6.64 321.43L6.3 321.15L5.96 320.87L5.63 320.58L5.31 320.29L4.99 320L4.69 319.71L4.39 319.41L4.1 319.11L3.82 318.81L3.55 318.5L3.29 318.2L3.04 317.88L2.79 317.57L2.55 317.25L2.33 316.92L2.11 316.6L1.9 316.27L1.71 315.94L1.52 315.6L1.35 315.29L1.34 315.26L1.18 314.92L1.02 314.58L0.88 314.23L0.75 313.87L0.63 313.52L0.53 313.16L0.43 312.8L0.34 312.44L0.27 312.08L0.21 311.72L0.16 311.35L0.12 310.99L0.1 310.62L0.09 310.25L0.09 309.88L0.1 309.51L0.12 309.14L0.16 308.77L0.2 308.43L2.11 306.73L3.81 308.64Z" />
			<path id="Path" class="shp5" d="M44.6 286.07L45.85 286.11L47.23 286.17L48.62 286.23L50.03 286.31L51.45 286.4L52.89 286.5L54.33 286.61L55.8 286.73L57.28 286.86L58.77 287.01L60.28 287.16L61.8 287.31L63.33 287.48L64.88 287.66L66.44 287.85L68 288.04L69.59 288.25L71.19 288.46L72.8 288.68L74.42 288.91L76.06 289.15L77.7 289.4L79.36 289.65L81.03 289.91L82.71 290.18L84.41 290.46L86.11 290.74L87.82 291.02L89.55 291.32L91.28 291.63L93.03 291.93L94.78 292.25L96.55 292.57L98.33 292.9L101.9 293.57L105.52 294.27L109.17 294.99L112.86 295.72L116.58 296.47L116.73 296.51L120.33 297.26L124.1 298.07L127.9 298.89L131.73 299.72L135.58 300.56L139.46 301.42L143.36 302.29L151.21 304.04L154.63 304.81L159.12 305.85L167.09 307.69L175.11 309.53L183.15 311.37L187.18 312.28L191.14 313.17L191.21 313.19L195.23 314.12L199.26 315.05L203.28 315.97L207.3 316.89L211.31 317.78L215.32 318.67L219.32 319.55L223.31 320.4L224.22 320.59L227.29 321.28L231.25 322.14L235.2 322.98L237.15 323.4L238.81 323.75L239.11 323.81L241.07 324.24L243.02 324.66L244.96 325.07L246.9 325.48L248.84 325.88L250.76 326.27L251.75 326.47L252.69 326.68L254.6 327.08L256.51 327.49L258.41 327.88L260.3 328.27L262.19 328.65L263.66 328.94L264.07 329.03L265.95 329.42L267.81 329.81L269.66 330.18L271.52 330.55L273.36 330.92L275.19 331.26L275.34 331.29L277.02 331.64L278.83 332.01L280.64 332.37L282.44 332.72L284.23 333.06L286.01 333.4L287.79 333.72L289.55 334.04L291.31 334.34L293.05 334.63L294.79 334.92L296.52 335.19L297.79 335.39L298.23 335.46L299.94 335.75L301.63 336.03L303.31 336.3L304.99 336.56L306.65 336.8L308.31 337.04L309.95 337.26L311.58 337.47L313.2 337.67L314.81 337.86L316.41 338.03L318 338.2L318.69 338.26L319.57 338.36L321.13 338.52L322.68 338.68L324.23 338.82L325.75 338.95L327.27 339.06L328.77 339.16L330.25 339.25L331.73 339.32L333.19 339.38L334.64 339.42L336.08 339.45L337.51 339.46L337.59 339.46L338.92 339.5L340.33 339.51L341.02 339.52L341.71 339.52L342.39 339.51L343.08 339.5L343.76 339.49L344.44 339.48L345.12 339.45L345.79 339.43L346.46 339.4L347.12 339.37L347.78 339.33L348.44 339.29L349.1 339.25L349.75 339.2L350.39 339.15L351.04 339.09L351.68 339.03L352.31 338.97L352.94 338.9L353.57 338.83L354.2 338.75L354.82 338.67L355.44 338.58L356.05 338.49L356.66 338.4L357.27 338.3L357.88 338.2L358.47 338.09L359.07 337.98L359.67 337.86L360.25 337.74L360.84 337.62L361.42 337.49L362 337.36L362.57 337.22L363.14 337.08L363.71 336.93L364.27 336.78L364.83 336.62L365.38 336.47L365.94 336.3L366.49 336.13L367.03 335.95L367.1 335.93L367.57 335.78L368.11 335.61L368.65 335.43L369.19 335.26L369.72 335.07L370.25 334.88L370.77 334.68L371.29 334.48L371.81 334.27L372.32 334.06L372.83 333.84L373.34 333.62L373.84 333.39L374.34 333.16L374.83 332.92L375.32 332.67L375.81 332.43L376.3 332.17L376.78 331.91L377.25 331.64L377.73 331.37L378.19 331.09L378.66 330.81L379.12 330.52L379.59 330.22L380.04 329.92L380.49 329.62L380.94 329.3L381.38 328.99L381.82 328.66L381.92 328.58L382.27 328.32L384.84 328.33L384.83 330.9L384.55 331.25L384.47 331.36L384.1 331.82L383.71 332.29L383.33 332.74L382.93 333.19L382.53 333.64L382.12 334.08L381.7 334.52L381.29 334.96L380.86 335.39L380.42 335.81L379.98 336.24L379.53 336.65L379.08 337.06L378.62 337.47L378.15 337.88L377.68 338.28L377.21 338.67L376.72 339.07L376.23 339.45L375.73 339.84L375.23 340.22L374.72 340.59L374.21 340.96L373.69 341.33L373.16 341.69L372.63 342.05L372.09 342.41L371.55 342.76L371 343.1L370.52 343.4L370.44 343.44L369.88 343.77L369.31 344.08L368.73 344.4L368.15 344.71L367.56 345.02L366.97 345.33L366.37 345.62L365.77 345.92L365.16 346.21L364.55 346.5L363.93 346.78L363.31 347.06L362.69 347.33L362.05 347.6L361.42 347.86L360.77 348.13L360.13 348.38L359.48 348.63L358.82 348.88L358.16 349.13L357.5 349.37L356.83 349.6L356.16 349.83L355.48 350.06L354.8 350.29L354.11 350.51L353.42 350.73L352.72 350.94L352.02 351.15L351.32 351.36L350.61 351.56L349.9 351.76L349.18 351.95L348.46 352.14L347.74 352.33L347 352.51L346.27 352.69L345.53 352.86L344.79 353.04L344.05 353.2L343.3 353.37L342.55 353.53L341.78 353.69L340.27 353.99L338.81 354.27L338.72 354.28L337.17 354.52L335.59 354.76L334.01 354.97L332.41 355.18L330.79 355.36L329.17 355.54L327.53 355.7L325.88 355.85L324.21 355.99L322.53 356.12L320.85 356.23L319.14 356.33L318.19 356.38L317.43 356.4L315.7 356.45L313.97 356.49L312.22 356.51L310.46 356.52L308.69 356.52L306.92 356.51L305.13 356.49L303.33 356.45L301.52 356.4L299.7 356.35L297.88 356.29L296.04 356.22L295.56 356.2L294.2 356.1L292.35 355.97L290.49 355.83L288.62 355.68L286.74 355.51L284.86 355.35L282.97 355.16L281.07 354.98L279.17 354.78L277.26 354.57L275.34 354.36L273.41 354.13L271.63 353.92L271.48 353.9L269.55 353.63L267.61 353.35L265.66 353.06L263.71 352.76L261.75 352.46L259.79 352.14L259.36 352.07L257.83 351.81L255.86 351.46L253.89 351.1L251.91 350.73L249.93 350.36L247.95 349.98L246.98 349.8L245.97 349.59L243.98 349.17L241.99 348.75L240 348.32L238 347.88L236 347.44L233.99 347L233.68 346.93L231.99 346.54L229.98 346.06L225.98 345.1L221.96 344.12L218.85 343.34L217.94 343.11L213.92 342.06L209.89 340.99L205.87 339.92L201.84 338.82L197.82 337.72L193.8 336.61L189.78 335.5L185.76 334.38L185.7 334.35L181.76 333.21L177.77 332.05L169.82 329.71L161.92 327.38L154.07 325.06L149.66 323.75L146.31 322.74L138.62 320.44L134.82 319.3L131.04 318.18L127.28 317.07L123.56 315.98L119.86 314.9L116.19 313.84L112.7 312.84L112.55 312.8L108.96 311.76L105.4 310.74L101.87 309.75L98.38 308.78L94.92 307.84L93.22 307.38L91.52 306.93L89.83 306.48L88.15 306.04L86.48 305.61L84.83 305.18L83.18 304.77L81.55 304.36L79.92 303.96L78.31 303.57L76.72 303.18L75.13 302.81L73.56 302.44L72 302.09L70.45 301.74L68.91 301.4L67.39 301.07L65.88 300.75L64.39 300.44L62.91 300.14L61.44 299.85L59.99 299.57L58.55 299.3L57.12 299.04L55.72 298.8L54.32 298.56L52.94 298.33L51.58 298.12L50.23 297.91L48.9 297.72L47.58 297.54L46.28 297.37L45.01 297.21L43.84 297.08L43.74 297.06L42.49 296.89L41.26 296.72L40.05 296.57L38.85 296.43L37.67 296.31L36.51 296.19L35.37 296.09L34.24 296.01L33.13 295.94L32.04 295.88L30.97 295.84L29.92 295.81L28.88 295.79L27.87 295.79L26.86 295.81L26.38 295.82L25.89 295.83L25.42 295.86L24.94 295.88L24.47 295.9L24 295.94L23.54 295.97L23.09 296.01L22.63 296.05L22.19 296.09L21.75 296.14L21.31 296.19L20.88 296.25L20.45 296.31L20.03 296.37L19.62 296.44L19.2 296.51L18.8 296.59L18.4 296.67L18.01 296.75L17.62 296.83L17.23 296.93L16.86 297.02L16.48 297.11L16.11 297.21L15.75 297.32L15.39 297.42L15.04 297.54L14.7 297.66L14.35 297.77L14.02 297.9L13.69 298.02L13.36 298.15L13.04 298.28L12.72 298.42L12.41 298.56L12.11 298.71L11.81 298.86L11.52 299.01L11.22 299.17L10.94 299.33L10.66 299.49L10.39 299.67L10.12 299.84L9.85 300.01L9.6 300.19L9.34 300.37L9.09 300.56L8.85 300.76L8.61 300.95L8.37 301.15L8.14 301.36L7.91 301.57L7.69 301.78L7.48 302L7.26 302.22L7.06 302.45L6.86 302.69L6.66 302.92L6.46 303.16L6.28 303.41L6.09 303.66L5.91 303.92L5.73 304.19L5.57 304.46L5.4 304.73L5.24 305.01L5.08 305.3L4.93 305.59L4.78 305.89L4.64 306.19L4.5 306.5L4.37 306.82L4.24 307.14L4.12 307.47L4 307.8L3.89 308.14L3.78 308.51L1.6 309.92L0.23 307.73L0.29 307.32L0.36 306.89L0.44 306.47L0.53 306.05L0.62 305.64L0.72 305.23L0.84 304.83L0.95 304.43L1.08 304.03L1.22 303.64L1.36 303.25L1.51 302.86L1.67 302.48L1.83 302.1L2.01 301.73L2.19 301.36L2.37 301L2.57 300.64L2.78 300.28L2.99 299.93L3.21 299.58L3.44 299.24L3.67 298.9L3.91 298.57L4.16 298.24L4.42 297.92L4.68 297.6L4.95 297.29L5.23 296.98L5.52 296.67L5.81 296.37L6.1 296.08L6.41 295.79L6.72 295.51L7.04 295.23L7.37 294.95L7.69 294.68L8.03 294.42L8.38 294.16L8.73 293.9L9.08 293.65L9.45 293.4L9.81 293.16L10.19 292.93L10.56 292.7L10.95 292.47L11.34 292.25L11.73 292.03L12.14 291.81L12.55 291.61L12.96 291.41L13.38 291.21L13.8 291.01L14.23 290.82L14.66 290.63L15.11 290.45L15.55 290.27L16 290.1L16.45 289.93L16.92 289.77L17.38 289.61L17.85 289.45L18.32 289.3L18.8 289.15L19.29 289L19.78 288.87L20.27 288.73L20.77 288.6L21.28 288.46L21.78 288.34L22.3 288.21L22.82 288.1L23.34 287.98L23.87 287.88L24.41 287.77L24.94 287.66L25.48 287.56L26.04 287.47L27.14 287.29L28.27 287.11L29.41 286.96L30.57 286.82L31.75 286.69L32.95 286.57L34.16 286.47L35.4 286.38L36.64 286.3L37.91 286.23L39.2 286.17L40.5 286.13L41.81 286.1L43.15 286.08L44.49 286.07L44.6 286.07Z" />
		</g>
		<text id="and Implant Clinic " style="transform: matrix(1,0,0,1,826,381)" >
			<tspan x="0" y="0" class="txt6">and Implant Clinic</tspan>
		</text>
	</g>
</svg>